<?xml version="1.0" encoding="UTF-8" standalone="no"?>
<!DOCTYPE svg PUBLIC "-//W3C//DTD SVG 1.1//EN"
 "http://www.w3.org/Graphics/SVG/1.1/DTD/svg11.dtd">
<!-- Generated by graphviz version 2.43.0 (0)
 -->
<!-- Title: structs Pages: 1 -->
<svg width="1023pt" height="603pt"
 viewBox="0.00 0.00 1023.00 603.00" xmlns="http://www.w3.org/2000/svg" xmlns:xlink="http://www.w3.org/1999/xlink">
<g id="graph0" class="graph" transform="scale(1 1) rotate(0) translate(4 599)">
<title>structs</title>
<polygon fill="white" stroke="transparent" points="-4,4 -4,-599 1019,-599 1019,4 -4,4"/>
<!-- arguments -->
<g id="node1" class="node">
<title>arguments</title>
<polygon fill="none" stroke="black" points="720.5,-498.5 720.5,-519.5 841.5,-519.5 841.5,-498.5 720.5,-498.5"/>
<text text-anchor="start" x="737.5" y="-506.3" font-family="Times,serif" font-weight="bold" font-size="14.00">arguments</text>
<polygon fill="none" stroke="black" points="720.5,-477.5 720.5,-498.5 744.5,-498.5 744.5,-477.5 720.5,-477.5"/>
<text text-anchor="start" x="723.5" y="-484.3" font-family="Times,serif" font-size="14.00">🔑</text>
<polygon fill="none" stroke="black" points="744.5,-477.5 744.5,-498.5 841.5,-498.5 841.5,-477.5 744.5,-477.5"/>
<text text-anchor="start" x="747.5" y="-484.3" font-family="Times,serif" font-size="14.00">argument_id</text>
<polygon fill="none" stroke="black" points="720.5,-456.5 720.5,-477.5 744.5,-477.5 744.5,-456.5 720.5,-456.5"/>
<text text-anchor="start" x="727.5" y="-463.3" font-family="Times,serif" font-size="14.00"> </text>
<polygon fill="none" stroke="black" points="744.5,-456.5 744.5,-477.5 841.5,-477.5 841.5,-456.5 744.5,-456.5"/>
<text text-anchor="start" x="754.5" y="-463.3" font-family="Times,serif" font-size="14.00">timestamp</text>
<polygon fill="none" stroke="black" points="720.5,-435.5 720.5,-456.5 744.5,-456.5 744.5,-435.5 720.5,-435.5"/>
<text text-anchor="start" x="727.5" y="-442.3" font-family="Times,serif" font-size="14.00"> </text>
<polygon fill="none" stroke="black" points="744.5,-435.5 744.5,-456.5 841.5,-456.5 841.5,-435.5 744.5,-435.5"/>
<text text-anchor="start" x="752.5" y="-442.3" font-family="Times,serif" font-size="14.00">description</text>
<polygon fill="none" stroke="black" points="720.5,-414.5 720.5,-435.5 744.5,-435.5 744.5,-414.5 720.5,-414.5"/>
<text text-anchor="start" x="727.5" y="-421.3" font-family="Times,serif" font-size="14.00"> </text>
<polygon fill="none" stroke="black" points="744.5,-414.5 744.5,-435.5 841.5,-435.5 841.5,-414.5 744.5,-414.5"/>
<text text-anchor="start" x="761" y="-421.3" font-family="Times,serif" font-size="14.00">model_id</text>
<polygon fill="none" stroke="black" points="720.5,-393.5 720.5,-414.5 744.5,-414.5 744.5,-393.5 720.5,-393.5"/>
<text text-anchor="start" x="727.5" y="-400.3" font-family="Times,serif" font-size="14.00"> </text>
<polygon fill="none" stroke="black" points="744.5,-393.5 744.5,-414.5 841.5,-414.5 841.5,-393.5 744.5,-393.5"/>
<text text-anchor="start" x="773.5" y="-400.3" font-family="Times,serif" font-size="14.00">value</text>
</g>
<!-- models -->
<g id="node7" class="node">
<title>models</title>
<polygon fill="none" stroke="black" points="896.5,-219.5 896.5,-240.5 1007.5,-240.5 1007.5,-219.5 896.5,-219.5"/>
<text text-anchor="start" x="923.5" y="-227.3" font-family="Times,serif" font-weight="bold" font-size="14.00">models</text>
<polygon fill="none" stroke="black" points="896.5,-198.5 896.5,-219.5 920.5,-219.5 920.5,-198.5 896.5,-198.5"/>
<text text-anchor="start" x="899.5" y="-205.3" font-family="Times,serif" font-size="14.00">🔑</text>
<polygon fill="none" stroke="black" points="920.5,-198.5 920.5,-219.5 1007.5,-219.5 1007.5,-198.5 920.5,-198.5"/>
<text text-anchor="start" x="932" y="-205.3" font-family="Times,serif" font-size="14.00">model_id</text>
<polygon fill="none" stroke="black" points="896.5,-177.5 896.5,-198.5 920.5,-198.5 920.5,-177.5 896.5,-177.5"/>
<text text-anchor="start" x="903.5" y="-184.3" font-family="Times,serif" font-size="14.00"> </text>
<polygon fill="none" stroke="black" points="920.5,-177.5 920.5,-198.5 1007.5,-198.5 1007.5,-177.5 920.5,-177.5"/>
<text text-anchor="start" x="925.5" y="-184.3" font-family="Times,serif" font-size="14.00">timestamp</text>
<polygon fill="none" stroke="black" points="896.5,-156.5 896.5,-177.5 920.5,-177.5 920.5,-156.5 896.5,-156.5"/>
<text text-anchor="start" x="903.5" y="-163.3" font-family="Times,serif" font-size="14.00"> </text>
<polygon fill="none" stroke="black" points="920.5,-156.5 920.5,-177.5 1007.5,-177.5 1007.5,-156.5 920.5,-156.5"/>
<text text-anchor="start" x="944" y="-163.3" font-family="Times,serif" font-size="14.00">name</text>
<polygon fill="none" stroke="black" points="896.5,-135.5 896.5,-156.5 920.5,-156.5 920.5,-135.5 896.5,-135.5"/>
<text text-anchor="start" x="903.5" y="-142.3" font-family="Times,serif" font-size="14.00"> </text>
<polygon fill="none" stroke="black" points="920.5,-135.5 920.5,-156.5 1007.5,-156.5 1007.5,-135.5 920.5,-135.5"/>
<text text-anchor="start" x="923.5" y="-142.3" font-family="Times,serif" font-size="14.00">description</text>
</g>
<!-- arguments&#45;&gt;models -->
<g id="edge4" class="edge">
<title>arguments:e&#45;&gt;models:w</title>
<path fill="none" stroke="black" d="M842.5,-424.5C937.26,-424.5 807.43,-225.16 885.52,-210.37"/>
<polygon fill="black" stroke="black" points="885.84,-213.85 895.5,-209.5 885.23,-206.88 885.84,-213.85"/>
</g>
<!-- capabilities -->
<g id="node2" class="node">
<title>capabilities</title>
<polygon fill="none" stroke="black" points="720.5,-151.5 720.5,-172.5 841.5,-172.5 841.5,-151.5 720.5,-151.5"/>
<text text-anchor="start" x="735.5" y="-159.3" font-family="Times,serif" font-weight="bold" font-size="14.00">capabilities</text>
<polygon fill="none" stroke="black" points="720.5,-130.5 720.5,-151.5 744.5,-151.5 744.5,-130.5 720.5,-130.5"/>
<text text-anchor="start" x="723.5" y="-137.3" font-family="Times,serif" font-size="14.00">🔑</text>
<polygon fill="none" stroke="black" points="744.5,-130.5 744.5,-151.5 841.5,-151.5 841.5,-130.5 744.5,-130.5"/>
<text text-anchor="start" x="747.5" y="-137.3" font-family="Times,serif" font-size="14.00">capability_id</text>
<polygon fill="none" stroke="black" points="720.5,-109.5 720.5,-130.5 744.5,-130.5 744.5,-109.5 720.5,-109.5"/>
<text text-anchor="start" x="727.5" y="-116.3" font-family="Times,serif" font-size="14.00"> </text>
<polygon fill="none" stroke="black" points="744.5,-109.5 744.5,-130.5 841.5,-130.5 841.5,-109.5 744.5,-109.5"/>
<text text-anchor="start" x="754.5" y="-116.3" font-family="Times,serif" font-size="14.00">timestamp</text>
<polygon fill="none" stroke="black" points="720.5,-88.5 720.5,-109.5 744.5,-109.5 744.5,-88.5 720.5,-88.5"/>
<text text-anchor="start" x="727.5" y="-95.3" font-family="Times,serif" font-size="14.00"> </text>
<polygon fill="none" stroke="black" points="744.5,-88.5 744.5,-109.5 841.5,-109.5 841.5,-88.5 744.5,-88.5"/>
<text text-anchor="start" x="761" y="-95.3" font-family="Times,serif" font-size="14.00">model_id</text>
<polygon fill="none" stroke="black" points="720.5,-67.5 720.5,-88.5 744.5,-88.5 744.5,-67.5 720.5,-67.5"/>
<text text-anchor="start" x="727.5" y="-74.3" font-family="Times,serif" font-size="14.00"> </text>
<polygon fill="none" stroke="black" points="744.5,-67.5 744.5,-88.5 841.5,-88.5 841.5,-67.5 744.5,-67.5"/>
<text text-anchor="start" x="758.5" y="-74.3" font-family="Times,serif" font-size="14.00">library_id</text>
</g>
<!-- libraries -->
<g id="node6" class="node">
<title>libraries</title>
<polygon fill="none" stroke="black" points="898.5,-87.5 898.5,-108.5 1005.5,-108.5 1005.5,-87.5 898.5,-87.5"/>
<text text-anchor="start" x="918.5" y="-95.3" font-family="Times,serif" font-weight="bold" font-size="14.00">libraries</text>
<polygon fill="none" stroke="black" points="898.5,-66.5 898.5,-87.5 922.5,-87.5 922.5,-66.5 898.5,-66.5"/>
<text text-anchor="start" x="901.5" y="-73.3" font-family="Times,serif" font-size="14.00">🔑</text>
<polygon fill="none" stroke="black" points="922.5,-66.5 922.5,-87.5 1005.5,-87.5 1005.5,-66.5 922.5,-66.5"/>
<text text-anchor="start" x="929.5" y="-73.3" font-family="Times,serif" font-size="14.00">library_id</text>
<polygon fill="none" stroke="black" points="898.5,-45.5 898.5,-66.5 922.5,-66.5 922.5,-45.5 898.5,-45.5"/>
<text text-anchor="start" x="905.5" y="-52.3" font-family="Times,serif" font-size="14.00"> </text>
<polygon fill="none" stroke="black" points="922.5,-45.5 922.5,-66.5 1005.5,-66.5 1005.5,-45.5 922.5,-45.5"/>
<text text-anchor="start" x="925.5" y="-52.3" font-family="Times,serif" font-size="14.00">timestamp</text>
<polygon fill="none" stroke="black" points="898.5,-24.5 898.5,-45.5 922.5,-45.5 922.5,-24.5 898.5,-24.5"/>
<text text-anchor="start" x="905.5" y="-31.3" font-family="Times,serif" font-size="14.00"> </text>
<polygon fill="none" stroke="black" points="922.5,-24.5 922.5,-45.5 1005.5,-45.5 1005.5,-24.5 922.5,-24.5"/>
<text text-anchor="start" x="944" y="-31.3" font-family="Times,serif" font-size="14.00">name</text>
<polygon fill="none" stroke="black" points="898.5,-3.5 898.5,-24.5 922.5,-24.5 922.5,-3.5 898.5,-3.5"/>
<text text-anchor="start" x="905.5" y="-10.3" font-family="Times,serif" font-size="14.00"> </text>
<polygon fill="none" stroke="black" points="922.5,-3.5 922.5,-24.5 1005.5,-24.5 1005.5,-3.5 922.5,-3.5"/>
<text text-anchor="start" x="937.5" y="-10.3" font-family="Times,serif" font-size="14.00">version</text>
</g>
<!-- capabilities&#45;&gt;libraries -->
<g id="edge5" class="edge">
<title>capabilities:e&#45;&gt;libraries:w</title>
<path fill="none" stroke="black" d="M842.5,-77.5C863.12,-77.5 870.7,-77.5 887.24,-77.5"/>
<polygon fill="black" stroke="black" points="887.5,-81 897.5,-77.5 887.5,-74 887.5,-81"/>
</g>
<!-- capabilities&#45;&gt;models -->
<g id="edge6" class="edge">
<title>capabilities:e&#45;&gt;models:w</title>
<path fill="none" stroke="black" d="M842.5,-98.5C893.32,-98.5 848.21,-194.44 885.54,-207.93"/>
<polygon fill="black" stroke="black" points="885.08,-211.4 895.5,-209.5 886.17,-204.49 885.08,-211.4"/>
</g>
<!-- codes -->
<g id="node3" class="node">
<title>codes</title>
<polygon fill="none" stroke="black" points="361,-473.5 361,-494.5 487,-494.5 487,-473.5 361,-473.5"/>
<text text-anchor="start" x="401.5" y="-481.3" font-family="Times,serif" font-weight="bold" font-size="14.00">codes</text>
<polygon fill="none" stroke="black" points="361,-452.5 361,-473.5 385,-473.5 385,-452.5 361,-452.5"/>
<text text-anchor="start" x="364" y="-459.3" font-family="Times,serif" font-size="14.00">🔑</text>
<polygon fill="none" stroke="black" points="385,-452.5 385,-473.5 487,-473.5 487,-452.5 385,-452.5"/>
<text text-anchor="start" x="409" y="-459.3" font-family="Times,serif" font-size="14.00">code_id</text>
<polygon fill="none" stroke="black" points="361,-431.5 361,-452.5 385,-452.5 385,-431.5 361,-431.5"/>
<text text-anchor="start" x="368" y="-438.3" font-family="Times,serif" font-size="14.00"> </text>
<polygon fill="none" stroke="black" points="385,-431.5 385,-452.5 487,-452.5 487,-431.5 385,-431.5"/>
<text text-anchor="start" x="397.5" y="-438.3" font-family="Times,serif" font-size="14.00">timestamp</text>
<polygon fill="none" stroke="black" points="361,-410.5 361,-431.5 385,-431.5 385,-410.5 361,-410.5"/>
<text text-anchor="start" x="368" y="-417.3" font-family="Times,serif" font-size="14.00"> </text>
<polygon fill="none" stroke="black" points="385,-410.5 385,-431.5 487,-431.5 487,-410.5 385,-410.5"/>
<text text-anchor="start" x="405" y="-417.3" font-family="Times,serif" font-size="14.00">filename</text>
<polygon fill="none" stroke="black" points="361,-389.5 361,-410.5 385,-410.5 385,-389.5 361,-389.5"/>
<text text-anchor="start" x="368" y="-396.3" font-family="Times,serif" font-size="14.00"> </text>
<polygon fill="none" stroke="black" points="385,-389.5 385,-410.5 487,-410.5 487,-389.5 385,-389.5"/>
<text text-anchor="start" x="398.5" y="-396.3" font-family="Times,serif" font-size="14.00">datafile_id</text>
<polygon fill="none" stroke="black" points="361,-368.5 361,-389.5 385,-389.5 385,-368.5 361,-368.5"/>
<text text-anchor="start" x="368" y="-375.3" font-family="Times,serif" font-size="14.00"> </text>
<polygon fill="none" stroke="black" points="385,-368.5 385,-389.5 487,-389.5 487,-368.5 385,-368.5"/>
<text text-anchor="start" x="388" y="-375.3" font-family="Times,serif" font-size="14.00">parameter_id</text>
<polygon fill="none" stroke="black" points="361,-347.5 361,-368.5 385,-368.5 385,-347.5 361,-347.5"/>
<text text-anchor="start" x="368" y="-354.3" font-family="Times,serif" font-size="14.00"> </text>
<polygon fill="none" stroke="black" points="385,-347.5 385,-368.5 487,-368.5 487,-347.5 385,-347.5"/>
<text text-anchor="start" x="393.5" y="-354.3" font-family="Times,serif" font-size="14.00">template_id</text>
</g>
<!-- datafiles -->
<g id="node4" class="node">
<title>datafiles</title>
<polygon fill="none" stroke="black" points="547,-540.5 547,-561.5 658,-561.5 658,-540.5 547,-540.5"/>
<text text-anchor="start" x="568" y="-548.3" font-family="Times,serif" font-weight="bold" font-size="14.00">datafiles</text>
<polygon fill="none" stroke="black" points="547,-519.5 547,-540.5 571,-540.5 571,-519.5 547,-519.5"/>
<text text-anchor="start" x="550" y="-526.3" font-family="Times,serif" font-size="14.00">🔑</text>
<polygon fill="none" stroke="black" points="571,-519.5 571,-540.5 658,-540.5 658,-519.5 571,-519.5"/>
<text text-anchor="start" x="577" y="-526.3" font-family="Times,serif" font-size="14.00">datafile_id</text>
<polygon fill="none" stroke="black" points="547,-498.5 547,-519.5 571,-519.5 571,-498.5 547,-498.5"/>
<text text-anchor="start" x="554" y="-505.3" font-family="Times,serif" font-size="14.00"> </text>
<polygon fill="none" stroke="black" points="571,-498.5 571,-519.5 658,-519.5 658,-498.5 571,-498.5"/>
<text text-anchor="start" x="576" y="-505.3" font-family="Times,serif" font-size="14.00">timestamp</text>
<polygon fill="none" stroke="black" points="547,-477.5 547,-498.5 571,-498.5 571,-477.5 547,-477.5"/>
<text text-anchor="start" x="554" y="-484.3" font-family="Times,serif" font-size="14.00"> </text>
<polygon fill="none" stroke="black" points="571,-477.5 571,-498.5 658,-498.5 658,-477.5 571,-477.5"/>
<text text-anchor="start" x="574.5" y="-484.3" font-family="Times,serif" font-size="14.00">from_name</text>
<polygon fill="none" stroke="black" points="547,-456.5 547,-477.5 571,-477.5 571,-456.5 547,-456.5"/>
<text text-anchor="start" x="554" y="-463.3" font-family="Times,serif" font-size="14.00"> </text>
<polygon fill="none" stroke="black" points="571,-456.5 571,-477.5 658,-477.5 658,-456.5 571,-456.5"/>
<text text-anchor="start" x="579.5" y="-463.3" font-family="Times,serif" font-size="14.00">total_recs</text>
<polygon fill="none" stroke="black" points="547,-435.5 547,-456.5 571,-456.5 571,-435.5 547,-435.5"/>
<text text-anchor="start" x="554" y="-442.3" font-family="Times,serif" font-size="14.00"> </text>
<polygon fill="none" stroke="black" points="571,-435.5 571,-456.5 658,-456.5 658,-435.5 571,-435.5"/>
<text text-anchor="start" x="574" y="-442.3" font-family="Times,serif" font-size="14.00">description</text>
</g>
<!-- codes&#45;&gt;datafiles -->
<g id="edge10" class="edge">
<title>codes:e&#45;&gt;datafiles:w</title>
<path fill="none" stroke="black" d="M488,-399.5C547.82,-399.5 490.24,-515.12 535.84,-529.12"/>
<polygon fill="black" stroke="black" points="535.62,-532.62 546,-530.5 536.56,-525.68 535.62,-532.62"/>
</g>
<!-- parameters -->
<g id="node8" class="node">
<title>parameters</title>
<polygon fill="none" stroke="black" points="539,-388.5 539,-409.5 665,-409.5 665,-388.5 539,-388.5"/>
<text text-anchor="start" x="556.5" y="-396.3" font-family="Times,serif" font-weight="bold" font-size="14.00">parameters</text>
<polygon fill="none" stroke="black" points="539,-367.5 539,-388.5 563,-388.5 563,-367.5 539,-367.5"/>
<text text-anchor="start" x="542" y="-374.3" font-family="Times,serif" font-size="14.00">🔑</text>
<polygon fill="none" stroke="black" points="563,-367.5 563,-388.5 665,-388.5 665,-367.5 563,-367.5"/>
<text text-anchor="start" x="566" y="-374.3" font-family="Times,serif" font-size="14.00">parameter_id</text>
<polygon fill="none" stroke="black" points="539,-346.5 539,-367.5 563,-367.5 563,-346.5 539,-346.5"/>
<text text-anchor="start" x="546" y="-353.3" font-family="Times,serif" font-size="14.00"> </text>
<polygon fill="none" stroke="black" points="563,-346.5 563,-367.5 665,-367.5 665,-346.5 563,-346.5"/>
<text text-anchor="start" x="575.5" y="-353.3" font-family="Times,serif" font-size="14.00">timestamp</text>
<polygon fill="none" stroke="black" points="539,-325.5 539,-346.5 563,-346.5 563,-325.5 539,-325.5"/>
<text text-anchor="start" x="546" y="-332.3" font-family="Times,serif" font-size="14.00"> </text>
<polygon fill="none" stroke="black" points="563,-325.5 563,-346.5 665,-346.5 665,-325.5 563,-325.5"/>
<text text-anchor="start" x="594.5" y="-332.3" font-family="Times,serif" font-size="14.00">value</text>
<polygon fill="none" stroke="black" points="539,-304.5 539,-325.5 563,-325.5 563,-304.5 539,-304.5"/>
<text text-anchor="start" x="546" y="-311.3" font-family="Times,serif" font-size="14.00"> </text>
<polygon fill="none" stroke="black" points="563,-304.5 563,-325.5 665,-325.5 665,-304.5 563,-304.5"/>
<text text-anchor="start" x="568.5" y="-311.3" font-family="Times,serif" font-size="14.00">argument_id</text>
<polygon fill="none" stroke="black" points="539,-283.5 539,-304.5 563,-304.5 563,-283.5 539,-283.5"/>
<text text-anchor="start" x="546" y="-290.3" font-family="Times,serif" font-size="14.00"> </text>
<polygon fill="none" stroke="black" points="563,-283.5 563,-304.5 665,-304.5 665,-283.5 563,-283.5"/>
<text text-anchor="start" x="568.5" y="-290.3" font-family="Times,serif" font-size="14.00">capability_id</text>
</g>
<!-- codes&#45;&gt;parameters -->
<g id="edge9" class="edge">
<title>codes:e&#45;&gt;parameters:w</title>
<path fill="none" stroke="black" d="M488,-378.5C506.4,-378.5 513.38,-378.5 527.85,-378.5"/>
<polygon fill="black" stroke="black" points="528,-382 538,-378.5 528,-375 528,-382"/>
</g>
<!-- templates -->
<g id="node10" class="node">
<title>templates</title>
<polygon fill="none" stroke="black" points="542,-236.5 542,-257.5 663,-257.5 663,-236.5 542,-236.5"/>
<text text-anchor="start" x="563" y="-244.3" font-family="Times,serif" font-weight="bold" font-size="14.00">templates</text>
<polygon fill="none" stroke="black" points="542,-215.5 542,-236.5 566,-236.5 566,-215.5 542,-215.5"/>
<text text-anchor="start" x="545" y="-222.3" font-family="Times,serif" font-size="14.00">🔑</text>
<polygon fill="none" stroke="black" points="566,-215.5 566,-236.5 663,-236.5 663,-215.5 566,-215.5"/>
<text text-anchor="start" x="572" y="-222.3" font-family="Times,serif" font-size="14.00">template_id</text>
<polygon fill="none" stroke="black" points="542,-194.5 542,-215.5 566,-215.5 566,-194.5 542,-194.5"/>
<text text-anchor="start" x="549" y="-201.3" font-family="Times,serif" font-size="14.00"> </text>
<polygon fill="none" stroke="black" points="566,-194.5 566,-215.5 663,-215.5 663,-194.5 566,-194.5"/>
<text text-anchor="start" x="576" y="-201.3" font-family="Times,serif" font-size="14.00">timestamp</text>
<polygon fill="none" stroke="black" points="542,-173.5 542,-194.5 566,-194.5 566,-173.5 542,-173.5"/>
<text text-anchor="start" x="549" y="-180.3" font-family="Times,serif" font-size="14.00"> </text>
<polygon fill="none" stroke="black" points="566,-173.5 566,-194.5 663,-194.5 663,-173.5 566,-173.5"/>
<text text-anchor="start" x="574" y="-180.3" font-family="Times,serif" font-size="14.00">description</text>
<polygon fill="none" stroke="black" points="542,-152.5 542,-173.5 566,-173.5 566,-152.5 542,-152.5"/>
<text text-anchor="start" x="549" y="-159.3" font-family="Times,serif" font-size="14.00"> </text>
<polygon fill="none" stroke="black" points="566,-152.5 566,-173.5 663,-173.5 663,-152.5 566,-152.5"/>
<text text-anchor="start" x="600" y="-159.3" font-family="Times,serif" font-size="14.00">text</text>
<polygon fill="none" stroke="black" points="542,-131.5 542,-152.5 566,-152.5 566,-131.5 542,-131.5"/>
<text text-anchor="start" x="549" y="-138.3" font-family="Times,serif" font-size="14.00"> </text>
<polygon fill="none" stroke="black" points="566,-131.5 566,-152.5 663,-152.5 663,-131.5 566,-131.5"/>
<text text-anchor="start" x="569" y="-138.3" font-family="Times,serif" font-size="14.00">capability_id</text>
</g>
<!-- codes&#45;&gt;templates -->
<g id="edge8" class="edge">
<title>codes:e&#45;&gt;templates:w</title>
<path fill="none" stroke="black" d="M488,-357.5C547,-357.5 486.49,-241.88 531.02,-227.88"/>
<polygon fill="black" stroke="black" points="531.57,-231.34 541,-226.5 530.61,-224.41 531.57,-231.34"/>
</g>
<!-- execs -->
<g id="node5" class="node">
<title>execs</title>
<polygon fill="none" stroke="black" points="185,-515.5 185,-536.5 309,-536.5 309,-515.5 185,-515.5"/>
<text text-anchor="start" x="225.5" y="-523.3" font-family="Times,serif" font-weight="bold" font-size="14.00">execs</text>
<polygon fill="none" stroke="black" points="185,-494.5 185,-515.5 209,-515.5 209,-494.5 185,-494.5"/>
<text text-anchor="start" x="188" y="-501.3" font-family="Times,serif" font-size="14.00">🔑</text>
<polygon fill="none" stroke="black" points="209,-494.5 209,-515.5 309,-515.5 309,-494.5 209,-494.5"/>
<text text-anchor="start" x="232.5" y="-501.3" font-family="Times,serif" font-size="14.00">exec_id</text>
<polygon fill="none" stroke="black" points="185,-473.5 185,-494.5 209,-494.5 209,-473.5 185,-473.5"/>
<text text-anchor="start" x="192" y="-480.3" font-family="Times,serif" font-size="14.00"> </text>
<polygon fill="none" stroke="black" points="209,-473.5 209,-494.5 309,-494.5 309,-473.5 209,-473.5"/>
<text text-anchor="start" x="220.5" y="-480.3" font-family="Times,serif" font-size="14.00">timestamp</text>
<polygon fill="none" stroke="black" points="185,-452.5 185,-473.5 209,-473.5 209,-452.5 185,-452.5"/>
<text text-anchor="start" x="192" y="-459.3" font-family="Times,serif" font-size="14.00"> </text>
<polygon fill="none" stroke="black" points="209,-452.5 209,-473.5 309,-473.5 309,-452.5 209,-452.5"/>
<text text-anchor="start" x="232" y="-459.3" font-family="Times,serif" font-size="14.00">code_id</text>
<polygon fill="none" stroke="black" points="185,-431.5 185,-452.5 209,-452.5 209,-431.5 185,-431.5"/>
<text text-anchor="start" x="192" y="-438.3" font-family="Times,serif" font-size="14.00"> </text>
<polygon fill="none" stroke="black" points="209,-431.5 209,-452.5 309,-452.5 309,-431.5 209,-431.5"/>
<text text-anchor="start" x="227.5" y="-438.3" font-family="Times,serif" font-size="14.00">sys_desc</text>
<polygon fill="none" stroke="black" points="185,-410.5 185,-431.5 209,-431.5 209,-410.5 185,-410.5"/>
<text text-anchor="start" x="192" y="-417.3" font-family="Times,serif" font-size="14.00"> </text>
<polygon fill="none" stroke="black" points="209,-410.5 209,-431.5 309,-431.5 309,-410.5 209,-410.5"/>
<text text-anchor="start" x="225.5" y="-417.3" font-family="Times,serif" font-size="14.00">exit_code</text>
<polygon fill="none" stroke="black" points="185,-389.5 185,-410.5 209,-410.5 209,-389.5 185,-389.5"/>
<text text-anchor="start" x="192" y="-396.3" font-family="Times,serif" font-size="14.00"> </text>
<polygon fill="none" stroke="black" points="209,-389.5 209,-410.5 309,-410.5 309,-389.5 209,-389.5"/>
<text text-anchor="start" x="212" y="-396.3" font-family="Times,serif" font-size="14.00">elapsed_time</text>
<polygon fill="none" stroke="black" points="185,-368.5 185,-389.5 209,-389.5 209,-368.5 185,-368.5"/>
<text text-anchor="start" x="192" y="-375.3" font-family="Times,serif" font-size="14.00"> </text>
<polygon fill="none" stroke="black" points="209,-368.5 209,-389.5 309,-389.5 309,-368.5 209,-368.5"/>
<text text-anchor="start" x="212" y="-375.3" font-family="Times,serif" font-size="14.00">process_time</text>
<polygon fill="none" stroke="black" points="185,-347.5 185,-368.5 209,-368.5 209,-347.5 185,-347.5"/>
<text text-anchor="start" x="192" y="-354.3" font-family="Times,serif" font-size="14.00"> </text>
<polygon fill="none" stroke="black" points="209,-347.5 209,-368.5 309,-368.5 309,-347.5 209,-347.5"/>
<text text-anchor="start" x="239.5" y="-354.3" font-family="Times,serif" font-size="14.00">value</text>
</g>
<!-- execs&#45;&gt;codes -->
<g id="edge11" class="edge">
<title>execs:e&#45;&gt;codes:w</title>
<path fill="none" stroke="black" d="M310,-463.5C328.4,-463.5 335.38,-463.5 349.85,-463.5"/>
<polygon fill="black" stroke="black" points="350,-467 360,-463.5 350,-460 350,-467"/>
</g>
<!-- parameters&#45;&gt;arguments -->
<g id="edge2" class="edge">
<title>parameters:e&#45;&gt;arguments:w</title>
<path fill="none" stroke="black" d="M666,-314.5C743.11,-314.5 648.33,-472.57 709.33,-487.39"/>
<polygon fill="black" stroke="black" points="709.18,-490.89 719.5,-488.5 709.94,-483.93 709.18,-490.89"/>
</g>
<!-- parameters&#45;&gt;capabilities -->
<g id="edge1" class="edge">
<title>parameters:e&#45;&gt;capabilities:w</title>
<path fill="none" stroke="black" d="M666,-293.5C733.84,-293.5 656.9,-157.11 709.47,-142.72"/>
<polygon fill="black" stroke="black" points="710,-146.19 719.5,-141.5 709.15,-139.24 710,-146.19"/>
</g>
<!-- paramlims -->
<g id="node9" class="node">
<title>paramlims</title>
<polygon fill="none" stroke="black" points="717.5,-346.5 717.5,-367.5 844.5,-367.5 844.5,-346.5 717.5,-346.5"/>
<text text-anchor="start" x="738.5" y="-354.3" font-family="Times,serif" font-weight="bold" font-size="14.00">paramlims</text>
<polygon fill="none" stroke="black" points="717.5,-325.5 717.5,-346.5 741.5,-346.5 741.5,-325.5 717.5,-325.5"/>
<text text-anchor="start" x="720.5" y="-332.3" font-family="Times,serif" font-size="14.00">🔑</text>
<polygon fill="none" stroke="black" points="741.5,-325.5 741.5,-346.5 844.5,-346.5 844.5,-325.5 741.5,-325.5"/>
<text text-anchor="start" x="748.5" y="-332.3" font-family="Times,serif" font-size="14.00">paramlim_id</text>
<polygon fill="none" stroke="black" points="717.5,-304.5 717.5,-325.5 741.5,-325.5 741.5,-304.5 717.5,-304.5"/>
<text text-anchor="start" x="724.5" y="-311.3" font-family="Times,serif" font-size="14.00"> </text>
<polygon fill="none" stroke="black" points="741.5,-304.5 741.5,-325.5 844.5,-325.5 844.5,-304.5 741.5,-304.5"/>
<text text-anchor="start" x="754.5" y="-311.3" font-family="Times,serif" font-size="14.00">timestamp</text>
<polygon fill="none" stroke="black" points="717.5,-283.5 717.5,-304.5 741.5,-304.5 741.5,-283.5 717.5,-283.5"/>
<text text-anchor="start" x="724.5" y="-290.3" font-family="Times,serif" font-size="14.00"> </text>
<polygon fill="none" stroke="black" points="741.5,-283.5 741.5,-304.5 844.5,-304.5 844.5,-283.5 741.5,-283.5"/>
<text text-anchor="start" x="746" y="-290.3" font-family="Times,serif" font-size="14.00">extreme_min</text>
<polygon fill="none" stroke="black" points="717.5,-262.5 717.5,-283.5 741.5,-283.5 741.5,-262.5 717.5,-262.5"/>
<text text-anchor="start" x="724.5" y="-269.3" font-family="Times,serif" font-size="14.00"> </text>
<polygon fill="none" stroke="black" points="741.5,-262.5 741.5,-283.5 844.5,-283.5 844.5,-262.5 741.5,-262.5"/>
<text text-anchor="start" x="744.5" y="-269.3" font-family="Times,serif" font-size="14.00">extreme_max</text>
<polygon fill="none" stroke="black" points="717.5,-241.5 717.5,-262.5 741.5,-262.5 741.5,-241.5 717.5,-241.5"/>
<text text-anchor="start" x="724.5" y="-248.3" font-family="Times,serif" font-size="14.00"> </text>
<polygon fill="none" stroke="black" points="741.5,-241.5 741.5,-262.5 844.5,-262.5 844.5,-241.5 741.5,-241.5"/>
<text text-anchor="start" x="749" y="-248.3" font-family="Times,serif" font-size="14.00">created_min</text>
<polygon fill="none" stroke="black" points="717.5,-220.5 717.5,-241.5 741.5,-241.5 741.5,-220.5 717.5,-220.5"/>
<text text-anchor="start" x="724.5" y="-227.3" font-family="Times,serif" font-size="14.00"> </text>
<polygon fill="none" stroke="black" points="741.5,-220.5 741.5,-241.5 844.5,-241.5 844.5,-220.5 741.5,-220.5"/>
<text text-anchor="start" x="747.5" y="-227.3" font-family="Times,serif" font-size="14.00">created_max</text>
<polygon fill="none" stroke="black" points="717.5,-199.5 717.5,-220.5 741.5,-220.5 741.5,-199.5 717.5,-199.5"/>
<text text-anchor="start" x="724.5" y="-206.3" font-family="Times,serif" font-size="14.00"> </text>
<polygon fill="none" stroke="black" points="741.5,-199.5 741.5,-220.5 844.5,-220.5 844.5,-199.5 741.5,-199.5"/>
<text text-anchor="start" x="761" y="-206.3" font-family="Times,serif" font-size="14.00">model_id</text>
</g>
<!-- paramlims&#45;&gt;models -->
<g id="edge7" class="edge">
<title>paramlims:e&#45;&gt;models:w</title>
<path fill="none" stroke="black" d="M845.5,-209.5C863.9,-209.5 870.88,-209.5 885.35,-209.5"/>
<polygon fill="black" stroke="black" points="885.5,-213 895.5,-209.5 885.5,-206 885.5,-213"/>
</g>
<!-- templates&#45;&gt;capabilities -->
<g id="edge3" class="edge">
<title>templates:e&#45;&gt;capabilities:w</title>
<path fill="none" stroke="black" d="M664,-141.5C684.81,-141.5 692.45,-141.5 709.15,-141.5"/>
<polygon fill="black" stroke="black" points="709.5,-145 719.5,-141.5 709.5,-138 709.5,-145"/>
</g>
<!-- tests -->
<g id="node11" class="node">
<title>tests</title>
<polygon fill="none" stroke="black" points="8.5,-569.5 8.5,-590.5 133.5,-590.5 133.5,-569.5 8.5,-569.5"/>
<text text-anchor="start" x="51" y="-577.3" font-family="Times,serif" font-weight="bold" font-size="14.00">tests</text>
<polygon fill="none" stroke="black" points="8.5,-548.5 8.5,-569.5 32.5,-569.5 32.5,-548.5 8.5,-548.5"/>
<text text-anchor="start" x="11.5" y="-555.3" font-family="Times,serif" font-size="14.00">🔑</text>
<polygon fill="none" stroke="black" points="32.5,-548.5 32.5,-569.5 133.5,-569.5 133.5,-548.5 32.5,-548.5"/>
<text text-anchor="start" x="58.5" y="-555.3" font-family="Times,serif" font-size="14.00">test_id</text>
<polygon fill="none" stroke="black" points="8.5,-527.5 8.5,-548.5 32.5,-548.5 32.5,-527.5 8.5,-527.5"/>
<text text-anchor="start" x="15.5" y="-534.3" font-family="Times,serif" font-size="14.00"> </text>
<polygon fill="none" stroke="black" points="32.5,-527.5 32.5,-548.5 133.5,-548.5 133.5,-527.5 32.5,-527.5"/>
<text text-anchor="start" x="44.5" y="-534.3" font-family="Times,serif" font-size="14.00">timestamp</text>
<polygon fill="none" stroke="black" points="8.5,-506.5 8.5,-527.5 32.5,-527.5 32.5,-506.5 8.5,-506.5"/>
<text text-anchor="start" x="15.5" y="-513.3" font-family="Times,serif" font-size="14.00"> </text>
<polygon fill="none" stroke="black" points="32.5,-506.5 32.5,-527.5 133.5,-527.5 133.5,-506.5 32.5,-506.5"/>
<text text-anchor="start" x="41" y="-513.3" font-family="Times,serif" font-size="14.00">left_exec_id</text>
<polygon fill="none" stroke="black" points="8.5,-485.5 8.5,-506.5 32.5,-506.5 32.5,-485.5 8.5,-485.5"/>
<text text-anchor="start" x="15.5" y="-492.3" font-family="Times,serif" font-size="14.00"> </text>
<polygon fill="none" stroke="black" points="32.5,-485.5 32.5,-506.5 133.5,-506.5 133.5,-485.5 32.5,-485.5"/>
<text text-anchor="start" x="35.5" y="-492.3" font-family="Times,serif" font-size="14.00">right_exec_id</text>
<polygon fill="none" stroke="black" points="8.5,-464.5 8.5,-485.5 32.5,-485.5 32.5,-464.5 8.5,-464.5"/>
<text text-anchor="start" x="15.5" y="-471.3" font-family="Times,serif" font-size="14.00"> </text>
<polygon fill="none" stroke="black" points="32.5,-464.5 32.5,-485.5 133.5,-485.5 133.5,-464.5 32.5,-464.5"/>
<text text-anchor="start" x="49.5" y="-471.3" font-family="Times,serif" font-size="14.00">tolerance</text>
<polygon fill="none" stroke="black" points="8.5,-443.5 8.5,-464.5 32.5,-464.5 32.5,-443.5 8.5,-443.5"/>
<text text-anchor="start" x="15.5" y="-450.3" font-family="Times,serif" font-size="14.00"> </text>
<polygon fill="none" stroke="black" points="32.5,-443.5 32.5,-464.5 133.5,-464.5 133.5,-443.5 32.5,-443.5"/>
<text text-anchor="start" x="63.5" y="-450.3" font-family="Times,serif" font-size="14.00">value</text>
</g>
<!-- tests&#45;&gt;execs -->
<g id="edge12" class="edge">
<title>tests:e&#45;&gt;execs:w</title>
<path fill="none" stroke="black" d="M134.5,-495.5C153.09,-495.5 159.44,-502.36 173.83,-504.72"/>
<polygon fill="black" stroke="black" points="173.76,-508.22 184,-505.5 174.3,-501.24 173.76,-508.22"/>
</g>
<!-- tests&#45;&gt;execs -->
<g id="edge13" class="edge">
<title>tests:e&#45;&gt;execs:w</title>
<path fill="none" stroke="black" d="M134.5,-516.5C153.16,-516.5 159.41,-508.96 173.8,-506.36"/>
<polygon fill="black" stroke="black" points="174.33,-509.83 184,-505.5 173.74,-502.86 174.33,-509.83"/>
</g>
</g>
</svg>
