<?xml version="1.0" encoding="UTF-8" standalone="no"?>
<!DOCTYPE svg PUBLIC "-//W3C//DTD SVG 1.1//EN"
 "http://www.w3.org/Graphics/SVG/1.1/DTD/svg11.dtd">
<!-- Generated by graphviz version 2.43.0 (0)
 -->
<!-- Title: structs Pages: 1 -->
<svg width="632pt" height="562pt"
 viewBox="0.00 0.00 632.00 561.50" xmlns="http://www.w3.org/2000/svg" xmlns:xlink="http://www.w3.org/1999/xlink">
<g id="graph0" class="graph" transform="scale(1 1) rotate(0) translate(4 557.5)">
<title>structs</title>
<polygon fill="white" stroke="transparent" points="-4,4 -4,-557.5 628,-557.5 628,4 -4,4"/>
<!-- codes -->
<g id="node1" class="node">
<title>codes</title>
<polygon fill="none" stroke="black" points="346.5,-238.5 346.5,-259.5 453.5,-259.5 453.5,-238.5 346.5,-238.5"/>
<text text-anchor="start" x="377.5" y="-246.3" font-family="Times,serif" font-weight="bold" font-size="14.00">codes</text>
<polygon fill="none" stroke="black" points="346.5,-217.5 346.5,-238.5 370.5,-238.5 370.5,-217.5 346.5,-217.5"/>
<text text-anchor="start" x="349.5" y="-224.3" font-family="Times,serif" font-size="14.00">🔑</text>
<polygon fill="none" stroke="black" points="370.5,-217.5 370.5,-238.5 453.5,-238.5 453.5,-217.5 370.5,-217.5"/>
<text text-anchor="start" x="385" y="-224.3" font-family="Times,serif" font-size="14.00">code_id</text>
<polygon fill="none" stroke="black" points="346.5,-196.5 346.5,-217.5 370.5,-217.5 370.5,-196.5 346.5,-196.5"/>
<text text-anchor="start" x="353.5" y="-203.3" font-family="Times,serif" font-size="14.00"> </text>
<polygon fill="none" stroke="black" points="370.5,-196.5 370.5,-217.5 453.5,-217.5 453.5,-196.5 370.5,-196.5"/>
<text text-anchor="start" x="373.5" y="-203.3" font-family="Times,serif" font-size="14.00">timestamp</text>
<polygon fill="none" stroke="black" points="346.5,-175.5 346.5,-196.5 370.5,-196.5 370.5,-175.5 346.5,-175.5"/>
<text text-anchor="start" x="353.5" y="-182.3" font-family="Times,serif" font-size="14.00"> </text>
<polygon fill="none" stroke="black" points="370.5,-175.5 370.5,-196.5 453.5,-196.5 453.5,-175.5 370.5,-175.5"/>
<text text-anchor="start" x="379" y="-182.3" font-family="Times,serif" font-size="14.00">language</text>
<polygon fill="none" stroke="black" points="346.5,-154.5 346.5,-175.5 370.5,-175.5 370.5,-154.5 346.5,-154.5"/>
<text text-anchor="start" x="353.5" y="-161.3" font-family="Times,serif" font-size="14.00"> </text>
<polygon fill="none" stroke="black" points="370.5,-154.5 370.5,-175.5 453.5,-175.5 453.5,-154.5 370.5,-154.5"/>
<text text-anchor="start" x="374.5" y="-161.3" font-family="Times,serif" font-size="14.00">datafile_id</text>
<polygon fill="none" stroke="black" points="346.5,-133.5 346.5,-154.5 370.5,-154.5 370.5,-133.5 346.5,-133.5"/>
<text text-anchor="start" x="353.5" y="-140.3" font-family="Times,serif" font-size="14.00"> </text>
<polygon fill="none" stroke="black" points="370.5,-133.5 370.5,-154.5 453.5,-154.5 453.5,-133.5 370.5,-133.5"/>
<text text-anchor="start" x="378.5" y="-140.3" font-family="Times,serif" font-size="14.00">param_id</text>
</g>
<!-- datafiles -->
<g id="node2" class="node">
<title>datafiles</title>
<polygon fill="none" stroke="black" points="505.5,-240.5 505.5,-261.5 616.5,-261.5 616.5,-240.5 505.5,-240.5"/>
<text text-anchor="start" x="526.5" y="-248.3" font-family="Times,serif" font-weight="bold" font-size="14.00">datafiles</text>
<polygon fill="none" stroke="black" points="505.5,-219.5 505.5,-240.5 529.5,-240.5 529.5,-219.5 505.5,-219.5"/>
<text text-anchor="start" x="508.5" y="-226.3" font-family="Times,serif" font-size="14.00">🔑</text>
<polygon fill="none" stroke="black" points="529.5,-219.5 529.5,-240.5 616.5,-240.5 616.5,-219.5 529.5,-219.5"/>
<text text-anchor="start" x="535.5" y="-226.3" font-family="Times,serif" font-size="14.00">datafile_id</text>
<polygon fill="none" stroke="black" points="505.5,-198.5 505.5,-219.5 529.5,-219.5 529.5,-198.5 505.5,-198.5"/>
<text text-anchor="start" x="512.5" y="-205.3" font-family="Times,serif" font-size="14.00"> </text>
<polygon fill="none" stroke="black" points="529.5,-198.5 529.5,-219.5 616.5,-219.5 616.5,-198.5 529.5,-198.5"/>
<text text-anchor="start" x="534.5" y="-205.3" font-family="Times,serif" font-size="14.00">timestamp</text>
<polygon fill="none" stroke="black" points="505.5,-177.5 505.5,-198.5 529.5,-198.5 529.5,-177.5 505.5,-177.5"/>
<text text-anchor="start" x="512.5" y="-184.3" font-family="Times,serif" font-size="14.00"> </text>
<polygon fill="none" stroke="black" points="529.5,-177.5 529.5,-198.5 616.5,-198.5 616.5,-177.5 529.5,-177.5"/>
<text text-anchor="start" x="542" y="-184.3" font-family="Times,serif" font-size="14.00">filename</text>
<polygon fill="none" stroke="black" points="505.5,-156.5 505.5,-177.5 529.5,-177.5 529.5,-156.5 505.5,-156.5"/>
<text text-anchor="start" x="512.5" y="-163.3" font-family="Times,serif" font-size="14.00"> </text>
<polygon fill="none" stroke="black" points="529.5,-156.5 529.5,-177.5 616.5,-177.5 616.5,-156.5 529.5,-156.5"/>
<text text-anchor="start" x="538" y="-163.3" font-family="Times,serif" font-size="14.00">total_recs</text>
<polygon fill="none" stroke="black" points="505.5,-135.5 505.5,-156.5 529.5,-156.5 529.5,-135.5 505.5,-135.5"/>
<text text-anchor="start" x="512.5" y="-142.3" font-family="Times,serif" font-size="14.00"> </text>
<polygon fill="none" stroke="black" points="529.5,-135.5 529.5,-156.5 616.5,-156.5 616.5,-135.5 529.5,-135.5"/>
<text text-anchor="start" x="532.5" y="-142.3" font-family="Times,serif" font-size="14.00">description</text>
</g>
<!-- codes&#45;&gt;datafiles -->
<g id="edge5" class="edge">
<title>codes:e&#45;&gt;datafiles:w</title>
<path fill="none" stroke="black" d="M454.5,-164.5C487.28,-164.5 472.14,-216.85 494.43,-228.3"/>
<polygon fill="black" stroke="black" points="493.98,-231.79 504.5,-230.5 495.48,-224.95 493.98,-231.79"/>
</g>
<!-- params -->
<g id="node5" class="node">
<title>params</title>
<polygon fill="none" stroke="black" points="507.5,-87.5 507.5,-108.5 614.5,-108.5 614.5,-87.5 507.5,-87.5"/>
<text text-anchor="start" x="531.5" y="-95.3" font-family="Times,serif" font-weight="bold" font-size="14.00">params</text>
<polygon fill="none" stroke="black" points="507.5,-66.5 507.5,-87.5 531.5,-87.5 531.5,-66.5 507.5,-66.5"/>
<text text-anchor="start" x="510.5" y="-73.3" font-family="Times,serif" font-size="14.00">🔑</text>
<polygon fill="none" stroke="black" points="531.5,-66.5 531.5,-87.5 614.5,-87.5 614.5,-66.5 531.5,-66.5"/>
<text text-anchor="start" x="539.5" y="-73.3" font-family="Times,serif" font-size="14.00">param_id</text>
<polygon fill="none" stroke="black" points="507.5,-45.5 507.5,-66.5 531.5,-66.5 531.5,-45.5 507.5,-45.5"/>
<text text-anchor="start" x="514.5" y="-52.3" font-family="Times,serif" font-size="14.00"> </text>
<polygon fill="none" stroke="black" points="531.5,-45.5 531.5,-66.5 614.5,-66.5 614.5,-45.5 531.5,-45.5"/>
<text text-anchor="start" x="551" y="-52.3" font-family="Times,serif" font-size="14.00">model</text>
<polygon fill="none" stroke="black" points="507.5,-24.5 507.5,-45.5 531.5,-45.5 531.5,-24.5 507.5,-24.5"/>
<text text-anchor="start" x="514.5" y="-31.3" font-family="Times,serif" font-size="14.00"> </text>
<polygon fill="none" stroke="black" points="531.5,-24.5 531.5,-45.5 614.5,-45.5 614.5,-24.5 531.5,-24.5"/>
<text text-anchor="start" x="534.5" y="-31.3" font-family="Times,serif" font-size="14.00">timestamp</text>
<polygon fill="none" stroke="black" points="507.5,-3.5 507.5,-24.5 531.5,-24.5 531.5,-3.5 507.5,-3.5"/>
<text text-anchor="start" x="514.5" y="-10.3" font-family="Times,serif" font-size="14.00"> </text>
<polygon fill="none" stroke="black" points="531.5,-3.5 531.5,-24.5 614.5,-24.5 614.5,-3.5 531.5,-3.5"/>
<text text-anchor="start" x="553.5" y="-10.3" font-family="Times,serif" font-size="14.00">value</text>
</g>
<!-- codes&#45;&gt;params -->
<g id="edge4" class="edge">
<title>codes:e&#45;&gt;params:w</title>
<path fill="none" stroke="black" d="M454.5,-143.5C487.91,-143.5 473.27,-90.69 496.55,-79.55"/>
<polygon fill="black" stroke="black" points="497.41,-82.94 506.5,-77.5 496,-76.09 497.41,-82.94"/>
</g>
<!-- execs -->
<g id="node3" class="node">
<title>execs</title>
<polygon fill="none" stroke="black" points="187.5,-281.5 187.5,-302.5 294.5,-302.5 294.5,-281.5 187.5,-281.5"/>
<text text-anchor="start" x="219.5" y="-289.3" font-family="Times,serif" font-weight="bold" font-size="14.00">execs</text>
<polygon fill="none" stroke="black" points="187.5,-260.5 187.5,-281.5 211.5,-281.5 211.5,-260.5 187.5,-260.5"/>
<text text-anchor="start" x="190.5" y="-267.3" font-family="Times,serif" font-size="14.00">🔑</text>
<polygon fill="none" stroke="black" points="211.5,-260.5 211.5,-281.5 294.5,-281.5 294.5,-260.5 211.5,-260.5"/>
<text text-anchor="start" x="226.5" y="-267.3" font-family="Times,serif" font-size="14.00">exec_id</text>
<polygon fill="none" stroke="black" points="187.5,-239.5 187.5,-260.5 211.5,-260.5 211.5,-239.5 187.5,-239.5"/>
<text text-anchor="start" x="194.5" y="-246.3" font-family="Times,serif" font-size="14.00"> </text>
<polygon fill="none" stroke="black" points="211.5,-239.5 211.5,-260.5 294.5,-260.5 294.5,-239.5 211.5,-239.5"/>
<text text-anchor="start" x="214.5" y="-246.3" font-family="Times,serif" font-size="14.00">timestamp</text>
<polygon fill="none" stroke="black" points="187.5,-218.5 187.5,-239.5 211.5,-239.5 211.5,-218.5 187.5,-218.5"/>
<text text-anchor="start" x="194.5" y="-225.3" font-family="Times,serif" font-size="14.00"> </text>
<polygon fill="none" stroke="black" points="211.5,-218.5 211.5,-239.5 294.5,-239.5 294.5,-218.5 211.5,-218.5"/>
<text text-anchor="start" x="226" y="-225.3" font-family="Times,serif" font-size="14.00">code_id</text>
<polygon fill="none" stroke="black" points="187.5,-197.5 187.5,-218.5 211.5,-218.5 211.5,-197.5 187.5,-197.5"/>
<text text-anchor="start" x="194.5" y="-204.3" font-family="Times,serif" font-size="14.00"> </text>
<polygon fill="none" stroke="black" points="211.5,-197.5 211.5,-218.5 294.5,-218.5 294.5,-197.5 211.5,-197.5"/>
<text text-anchor="start" x="221.5" y="-204.3" font-family="Times,serif" font-size="14.00">sys_desc</text>
<polygon fill="none" stroke="black" points="187.5,-176.5 187.5,-197.5 211.5,-197.5 211.5,-176.5 187.5,-176.5"/>
<text text-anchor="start" x="194.5" y="-183.3" font-family="Times,serif" font-size="14.00"> </text>
<polygon fill="none" stroke="black" points="211.5,-176.5 211.5,-197.5 294.5,-197.5 294.5,-176.5 211.5,-176.5"/>
<text text-anchor="start" x="222.5" y="-183.3" font-family="Times,serif" font-size="14.00">duration</text>
<polygon fill="none" stroke="black" points="187.5,-155.5 187.5,-176.5 211.5,-176.5 211.5,-155.5 187.5,-155.5"/>
<text text-anchor="start" x="194.5" y="-162.3" font-family="Times,serif" font-size="14.00"> </text>
<polygon fill="none" stroke="black" points="211.5,-155.5 211.5,-176.5 294.5,-176.5 294.5,-155.5 211.5,-155.5"/>
<text text-anchor="start" x="233.5" y="-162.3" font-family="Times,serif" font-size="14.00">value</text>
</g>
<!-- execs&#45;&gt;codes -->
<g id="edge3" class="edge">
<title>execs:e&#45;&gt;codes:w</title>
<path fill="none" stroke="black" d="M295.5,-228.5C313.9,-228.5 320.88,-228.5 335.35,-228.5"/>
<polygon fill="black" stroke="black" points="335.5,-232 345.5,-228.5 335.5,-225 335.5,-232"/>
</g>
<!-- paramlims -->
<g id="node4" class="node">
<title>paramlims</title>
<polygon fill="none" stroke="black" points="8.5,-528.5 8.5,-549.5 135.5,-549.5 135.5,-528.5 8.5,-528.5"/>
<text text-anchor="start" x="29.5" y="-536.3" font-family="Times,serif" font-weight="bold" font-size="14.00">paramlims</text>
<polygon fill="none" stroke="black" points="8.5,-507.5 8.5,-528.5 32.5,-528.5 32.5,-507.5 8.5,-507.5"/>
<text text-anchor="start" x="11.5" y="-514.3" font-family="Times,serif" font-size="14.00">🔑</text>
<polygon fill="none" stroke="black" points="32.5,-507.5 32.5,-528.5 135.5,-528.5 135.5,-507.5 32.5,-507.5"/>
<text text-anchor="start" x="39.5" y="-514.3" font-family="Times,serif" font-size="14.00">paramlim_id</text>
<polygon fill="none" stroke="black" points="8.5,-486.5 8.5,-507.5 32.5,-507.5 32.5,-486.5 8.5,-486.5"/>
<text text-anchor="start" x="15.5" y="-493.3" font-family="Times,serif" font-size="14.00"> </text>
<polygon fill="none" stroke="black" points="32.5,-486.5 32.5,-507.5 135.5,-507.5 135.5,-486.5 32.5,-486.5"/>
<text text-anchor="start" x="62" y="-493.3" font-family="Times,serif" font-size="14.00">model</text>
<polygon fill="none" stroke="black" points="8.5,-465.5 8.5,-486.5 32.5,-486.5 32.5,-465.5 8.5,-465.5"/>
<text text-anchor="start" x="15.5" y="-472.3" font-family="Times,serif" font-size="14.00"> </text>
<polygon fill="none" stroke="black" points="32.5,-465.5 32.5,-486.5 135.5,-486.5 135.5,-465.5 32.5,-465.5"/>
<text text-anchor="start" x="45.5" y="-472.3" font-family="Times,serif" font-size="14.00">timestamp</text>
<polygon fill="none" stroke="black" points="8.5,-444.5 8.5,-465.5 32.5,-465.5 32.5,-444.5 8.5,-444.5"/>
<text text-anchor="start" x="15.5" y="-451.3" font-family="Times,serif" font-size="14.00"> </text>
<polygon fill="none" stroke="black" points="32.5,-444.5 32.5,-465.5 135.5,-465.5 135.5,-444.5 32.5,-444.5"/>
<text text-anchor="start" x="37" y="-451.3" font-family="Times,serif" font-size="14.00">extreme_min</text>
<polygon fill="none" stroke="black" points="8.5,-423.5 8.5,-444.5 32.5,-444.5 32.5,-423.5 8.5,-423.5"/>
<text text-anchor="start" x="15.5" y="-430.3" font-family="Times,serif" font-size="14.00"> </text>
<polygon fill="none" stroke="black" points="32.5,-423.5 32.5,-444.5 135.5,-444.5 135.5,-423.5 32.5,-423.5"/>
<text text-anchor="start" x="35.5" y="-430.3" font-family="Times,serif" font-size="14.00">extreme_max</text>
<polygon fill="none" stroke="black" points="8.5,-402.5 8.5,-423.5 32.5,-423.5 32.5,-402.5 8.5,-402.5"/>
<text text-anchor="start" x="15.5" y="-409.3" font-family="Times,serif" font-size="14.00"> </text>
<polygon fill="none" stroke="black" points="32.5,-402.5 32.5,-423.5 135.5,-423.5 135.5,-402.5 32.5,-402.5"/>
<text text-anchor="start" x="40" y="-409.3" font-family="Times,serif" font-size="14.00">created_min</text>
<polygon fill="none" stroke="black" points="8.5,-381.5 8.5,-402.5 32.5,-402.5 32.5,-381.5 8.5,-381.5"/>
<text text-anchor="start" x="15.5" y="-388.3" font-family="Times,serif" font-size="14.00"> </text>
<polygon fill="none" stroke="black" points="32.5,-381.5 32.5,-402.5 135.5,-402.5 135.5,-381.5 32.5,-381.5"/>
<text text-anchor="start" x="38.5" y="-388.3" font-family="Times,serif" font-size="14.00">created_max</text>
</g>
<!-- tests -->
<g id="node6" class="node">
<title>tests</title>
<polygon fill="none" stroke="black" points="9.5,-334.5 9.5,-355.5 134.5,-355.5 134.5,-334.5 9.5,-334.5"/>
<text text-anchor="start" x="52" y="-342.3" font-family="Times,serif" font-weight="bold" font-size="14.00">tests</text>
<polygon fill="none" stroke="black" points="9.5,-313.5 9.5,-334.5 33.5,-334.5 33.5,-313.5 9.5,-313.5"/>
<text text-anchor="start" x="12.5" y="-320.3" font-family="Times,serif" font-size="14.00">🔑</text>
<polygon fill="none" stroke="black" points="33.5,-313.5 33.5,-334.5 134.5,-334.5 134.5,-313.5 33.5,-313.5"/>
<text text-anchor="start" x="59.5" y="-320.3" font-family="Times,serif" font-size="14.00">test_id</text>
<polygon fill="none" stroke="black" points="9.5,-292.5 9.5,-313.5 33.5,-313.5 33.5,-292.5 9.5,-292.5"/>
<text text-anchor="start" x="16.5" y="-299.3" font-family="Times,serif" font-size="14.00"> </text>
<polygon fill="none" stroke="black" points="33.5,-292.5 33.5,-313.5 134.5,-313.5 134.5,-292.5 33.5,-292.5"/>
<text text-anchor="start" x="45.5" y="-299.3" font-family="Times,serif" font-size="14.00">timestamp</text>
<polygon fill="none" stroke="black" points="9.5,-271.5 9.5,-292.5 33.5,-292.5 33.5,-271.5 9.5,-271.5"/>
<text text-anchor="start" x="16.5" y="-278.3" font-family="Times,serif" font-size="14.00"> </text>
<polygon fill="none" stroke="black" points="33.5,-271.5 33.5,-292.5 134.5,-292.5 134.5,-271.5 33.5,-271.5"/>
<text text-anchor="start" x="42" y="-278.3" font-family="Times,serif" font-size="14.00">left_exec_id</text>
<polygon fill="none" stroke="black" points="9.5,-250.5 9.5,-271.5 33.5,-271.5 33.5,-250.5 9.5,-250.5"/>
<text text-anchor="start" x="16.5" y="-257.3" font-family="Times,serif" font-size="14.00"> </text>
<polygon fill="none" stroke="black" points="33.5,-250.5 33.5,-271.5 134.5,-271.5 134.5,-250.5 33.5,-250.5"/>
<text text-anchor="start" x="36.5" y="-257.3" font-family="Times,serif" font-size="14.00">right_exec_id</text>
<polygon fill="none" stroke="black" points="9.5,-229.5 9.5,-250.5 33.5,-250.5 33.5,-229.5 9.5,-229.5"/>
<text text-anchor="start" x="16.5" y="-236.3" font-family="Times,serif" font-size="14.00"> </text>
<polygon fill="none" stroke="black" points="33.5,-229.5 33.5,-250.5 134.5,-250.5 134.5,-229.5 33.5,-229.5"/>
<text text-anchor="start" x="64.5" y="-236.3" font-family="Times,serif" font-size="14.00">value</text>
</g>
<!-- tests&#45;&gt;execs -->
<g id="edge1" class="edge">
<title>tests:e&#45;&gt;execs:w</title>
<path fill="none" stroke="black" d="M135.5,-260.5C154.88,-260.5 161.3,-268.19 176.42,-270.71"/>
<polygon fill="black" stroke="black" points="176.26,-274.21 186.5,-271.5 176.8,-267.23 176.26,-274.21"/>
</g>
<!-- tests&#45;&gt;execs -->
<g id="edge2" class="edge">
<title>tests:e&#45;&gt;execs:w</title>
<path fill="none" stroke="black" d="M135.5,-281.5C154.81,-281.5 161.33,-274.51 176.45,-272.22"/>
<polygon fill="black" stroke="black" points="176.78,-275.7 186.5,-271.5 176.28,-268.72 176.78,-275.7"/>
</g>
</g>
</svg>
