<?xml version="1.0" encoding="UTF-8" standalone="no"?>
<!DOCTYPE svg PUBLIC "-//W3C//DTD SVG 1.1//EN"
 "http://www.w3.org/Graphics/SVG/1.1/DTD/svg11.dtd">
<!-- Generated by graphviz version 2.43.0 (0)
 -->
<!-- Title: structs Pages: 1 -->
<svg width="1023pt" height="562pt"
 viewBox="0.00 0.00 1023.00 561.50" xmlns="http://www.w3.org/2000/svg" xmlns:xlink="http://www.w3.org/1999/xlink">
<g id="graph0" class="graph" transform="scale(1 1) rotate(0) translate(4 557.5)">
<title>structs</title>
<polygon fill="white" stroke="transparent" points="-4,4 -4,-557.5 1019,-557.5 1019,4 -4,4"/>
<!-- arguments -->
<g id="node1" class="node">
<title>arguments</title>
<polygon fill="none" stroke="black" points="720.5,-478 720.5,-499 841.5,-499 841.5,-478 720.5,-478"/>
<text text-anchor="start" x="737.5" y="-485.8" font-family="Times,serif" font-weight="bold" font-size="14.00">arguments</text>
<polygon fill="none" stroke="black" points="720.5,-457 720.5,-478 744.5,-478 744.5,-457 720.5,-457"/>
<text text-anchor="start" x="723.5" y="-463.8" font-family="Times,serif" font-size="14.00">🔑</text>
<polygon fill="none" stroke="black" points="744.5,-457 744.5,-478 841.5,-478 841.5,-457 744.5,-457"/>
<text text-anchor="start" x="747.5" y="-463.8" font-family="Times,serif" font-size="14.00">argument_id</text>
<polygon fill="none" stroke="black" points="720.5,-436 720.5,-457 744.5,-457 744.5,-436 720.5,-436"/>
<text text-anchor="start" x="727.5" y="-442.8" font-family="Times,serif" font-size="14.00"> </text>
<polygon fill="none" stroke="black" points="744.5,-436 744.5,-457 841.5,-457 841.5,-436 744.5,-436"/>
<text text-anchor="start" x="754.5" y="-442.8" font-family="Times,serif" font-size="14.00">timestamp</text>
<polygon fill="none" stroke="black" points="720.5,-415 720.5,-436 744.5,-436 744.5,-415 720.5,-415"/>
<text text-anchor="start" x="727.5" y="-421.8" font-family="Times,serif" font-size="14.00"> </text>
<polygon fill="none" stroke="black" points="744.5,-415 744.5,-436 841.5,-436 841.5,-415 744.5,-415"/>
<text text-anchor="start" x="752.5" y="-421.8" font-family="Times,serif" font-size="14.00">description</text>
<polygon fill="none" stroke="black" points="720.5,-394 720.5,-415 744.5,-415 744.5,-394 720.5,-394"/>
<text text-anchor="start" x="727.5" y="-400.8" font-family="Times,serif" font-size="14.00"> </text>
<polygon fill="none" stroke="black" points="744.5,-394 744.5,-415 841.5,-415 841.5,-394 744.5,-394"/>
<text text-anchor="start" x="761" y="-400.8" font-family="Times,serif" font-size="14.00">model_id</text>
<polygon fill="none" stroke="black" points="720.5,-373 720.5,-394 744.5,-394 744.5,-373 720.5,-373"/>
<text text-anchor="start" x="727.5" y="-379.8" font-family="Times,serif" font-size="14.00"> </text>
<polygon fill="none" stroke="black" points="744.5,-373 744.5,-394 841.5,-394 841.5,-373 744.5,-373"/>
<text text-anchor="start" x="773.5" y="-379.8" font-family="Times,serif" font-size="14.00">value</text>
</g>
<!-- models -->
<g id="node7" class="node">
<title>models</title>
<polygon fill="none" stroke="black" points="896.5,-199 896.5,-220 1007.5,-220 1007.5,-199 896.5,-199"/>
<text text-anchor="start" x="923.5" y="-206.8" font-family="Times,serif" font-weight="bold" font-size="14.00">models</text>
<polygon fill="none" stroke="black" points="896.5,-178 896.5,-199 920.5,-199 920.5,-178 896.5,-178"/>
<text text-anchor="start" x="899.5" y="-184.8" font-family="Times,serif" font-size="14.00">🔑</text>
<polygon fill="none" stroke="black" points="920.5,-178 920.5,-199 1007.5,-199 1007.5,-178 920.5,-178"/>
<text text-anchor="start" x="932" y="-184.8" font-family="Times,serif" font-size="14.00">model_id</text>
<polygon fill="none" stroke="black" points="896.5,-157 896.5,-178 920.5,-178 920.5,-157 896.5,-157"/>
<text text-anchor="start" x="903.5" y="-163.8" font-family="Times,serif" font-size="14.00"> </text>
<polygon fill="none" stroke="black" points="920.5,-157 920.5,-178 1007.5,-178 1007.5,-157 920.5,-157"/>
<text text-anchor="start" x="925.5" y="-163.8" font-family="Times,serif" font-size="14.00">timestamp</text>
<polygon fill="none" stroke="black" points="896.5,-136 896.5,-157 920.5,-157 920.5,-136 896.5,-136"/>
<text text-anchor="start" x="903.5" y="-142.8" font-family="Times,serif" font-size="14.00"> </text>
<polygon fill="none" stroke="black" points="920.5,-136 920.5,-157 1007.5,-157 1007.5,-136 920.5,-136"/>
<text text-anchor="start" x="923.5" y="-142.8" font-family="Times,serif" font-size="14.00">description</text>
</g>
<!-- arguments&#45;&gt;models -->
<g id="edge4" class="edge">
<title>arguments:e&#45;&gt;models:w</title>
<path fill="none" stroke="black" d="M842.5,-404C937.26,-404 807.43,-204.66 885.52,-189.87"/>
<polygon fill="black" stroke="black" points="885.84,-193.35 895.5,-189 885.23,-186.38 885.84,-193.35"/>
</g>
<!-- capabilities -->
<g id="node2" class="node">
<title>capabilities</title>
<polygon fill="none" stroke="black" points="720.5,-131 720.5,-152 841.5,-152 841.5,-131 720.5,-131"/>
<text text-anchor="start" x="735.5" y="-138.8" font-family="Times,serif" font-weight="bold" font-size="14.00">capabilities</text>
<polygon fill="none" stroke="black" points="720.5,-110 720.5,-131 744.5,-131 744.5,-110 720.5,-110"/>
<text text-anchor="start" x="723.5" y="-116.8" font-family="Times,serif" font-size="14.00">🔑</text>
<polygon fill="none" stroke="black" points="744.5,-110 744.5,-131 841.5,-131 841.5,-110 744.5,-110"/>
<text text-anchor="start" x="747.5" y="-116.8" font-family="Times,serif" font-size="14.00">capability_id</text>
<polygon fill="none" stroke="black" points="720.5,-89 720.5,-110 744.5,-110 744.5,-89 720.5,-89"/>
<text text-anchor="start" x="727.5" y="-95.8" font-family="Times,serif" font-size="14.00"> </text>
<polygon fill="none" stroke="black" points="744.5,-89 744.5,-110 841.5,-110 841.5,-89 744.5,-89"/>
<text text-anchor="start" x="754.5" y="-95.8" font-family="Times,serif" font-size="14.00">timestamp</text>
<polygon fill="none" stroke="black" points="720.5,-68 720.5,-89 744.5,-89 744.5,-68 720.5,-68"/>
<text text-anchor="start" x="727.5" y="-74.8" font-family="Times,serif" font-size="14.00"> </text>
<polygon fill="none" stroke="black" points="744.5,-68 744.5,-89 841.5,-89 841.5,-68 744.5,-68"/>
<text text-anchor="start" x="761" y="-74.8" font-family="Times,serif" font-size="14.00">model_id</text>
<polygon fill="none" stroke="black" points="720.5,-47 720.5,-68 744.5,-68 744.5,-47 720.5,-47"/>
<text text-anchor="start" x="727.5" y="-53.8" font-family="Times,serif" font-size="14.00"> </text>
<polygon fill="none" stroke="black" points="744.5,-47 744.5,-68 841.5,-68 841.5,-47 744.5,-47"/>
<text text-anchor="start" x="758.5" y="-53.8" font-family="Times,serif" font-size="14.00">library_id</text>
</g>
<!-- libraries -->
<g id="node6" class="node">
<title>libraries</title>
<polygon fill="none" stroke="black" points="896.5,-67 896.5,-88 1007.5,-88 1007.5,-67 896.5,-67"/>
<text text-anchor="start" x="918.5" y="-74.8" font-family="Times,serif" font-weight="bold" font-size="14.00">libraries</text>
<polygon fill="none" stroke="black" points="896.5,-46 896.5,-67 920.5,-67 920.5,-46 896.5,-46"/>
<text text-anchor="start" x="899.5" y="-52.8" font-family="Times,serif" font-size="14.00">🔑</text>
<polygon fill="none" stroke="black" points="920.5,-46 920.5,-67 1007.5,-67 1007.5,-46 920.5,-46"/>
<text text-anchor="start" x="929.5" y="-52.8" font-family="Times,serif" font-size="14.00">library_id</text>
<polygon fill="none" stroke="black" points="896.5,-25 896.5,-46 920.5,-46 920.5,-25 896.5,-25"/>
<text text-anchor="start" x="903.5" y="-31.8" font-family="Times,serif" font-size="14.00"> </text>
<polygon fill="none" stroke="black" points="920.5,-25 920.5,-46 1007.5,-46 1007.5,-25 920.5,-25"/>
<text text-anchor="start" x="925.5" y="-31.8" font-family="Times,serif" font-size="14.00">timestamp</text>
<polygon fill="none" stroke="black" points="896.5,-4 896.5,-25 920.5,-25 920.5,-4 896.5,-4"/>
<text text-anchor="start" x="903.5" y="-10.8" font-family="Times,serif" font-size="14.00"> </text>
<polygon fill="none" stroke="black" points="920.5,-4 920.5,-25 1007.5,-25 1007.5,-4 920.5,-4"/>
<text text-anchor="start" x="923.5" y="-10.8" font-family="Times,serif" font-size="14.00">description</text>
</g>
<!-- capabilities&#45;&gt;libraries -->
<g id="edge5" class="edge">
<title>capabilities:e&#45;&gt;libraries:w</title>
<path fill="none" stroke="black" d="M842.5,-57C862.19,-57 869.54,-57 885.18,-57"/>
<polygon fill="black" stroke="black" points="885.5,-60.5 895.5,-57 885.5,-53.5 885.5,-60.5"/>
</g>
<!-- capabilities&#45;&gt;models -->
<g id="edge6" class="edge">
<title>capabilities:e&#45;&gt;models:w</title>
<path fill="none" stroke="black" d="M842.5,-78C893.32,-78 848.21,-173.94 885.54,-187.43"/>
<polygon fill="black" stroke="black" points="885.08,-190.9 895.5,-189 886.17,-183.99 885.08,-190.9"/>
</g>
<!-- codes -->
<g id="node3" class="node">
<title>codes</title>
<polygon fill="none" stroke="black" points="361,-432 361,-453 487,-453 487,-432 361,-432"/>
<text text-anchor="start" x="401.5" y="-439.8" font-family="Times,serif" font-weight="bold" font-size="14.00">codes</text>
<polygon fill="none" stroke="black" points="361,-411 361,-432 385,-432 385,-411 361,-411"/>
<text text-anchor="start" x="364" y="-417.8" font-family="Times,serif" font-size="14.00">🔑</text>
<polygon fill="none" stroke="black" points="385,-411 385,-432 487,-432 487,-411 385,-411"/>
<text text-anchor="start" x="409" y="-417.8" font-family="Times,serif" font-size="14.00">code_id</text>
<polygon fill="none" stroke="black" points="361,-390 361,-411 385,-411 385,-390 361,-390"/>
<text text-anchor="start" x="368" y="-396.8" font-family="Times,serif" font-size="14.00"> </text>
<polygon fill="none" stroke="black" points="385,-390 385,-411 487,-411 487,-390 385,-390"/>
<text text-anchor="start" x="397.5" y="-396.8" font-family="Times,serif" font-size="14.00">timestamp</text>
<polygon fill="none" stroke="black" points="361,-369 361,-390 385,-390 385,-369 361,-369"/>
<text text-anchor="start" x="368" y="-375.8" font-family="Times,serif" font-size="14.00"> </text>
<polygon fill="none" stroke="black" points="385,-369 385,-390 487,-390 487,-369 385,-369"/>
<text text-anchor="start" x="398.5" y="-375.8" font-family="Times,serif" font-size="14.00">datafile_id</text>
<polygon fill="none" stroke="black" points="361,-348 361,-369 385,-369 385,-348 361,-348"/>
<text text-anchor="start" x="368" y="-354.8" font-family="Times,serif" font-size="14.00"> </text>
<polygon fill="none" stroke="black" points="385,-348 385,-369 487,-369 487,-348 385,-348"/>
<text text-anchor="start" x="388" y="-354.8" font-family="Times,serif" font-size="14.00">parameter_id</text>
<polygon fill="none" stroke="black" points="361,-327 361,-348 385,-348 385,-327 361,-327"/>
<text text-anchor="start" x="368" y="-333.8" font-family="Times,serif" font-size="14.00"> </text>
<polygon fill="none" stroke="black" points="385,-327 385,-348 487,-348 487,-327 385,-327"/>
<text text-anchor="start" x="393.5" y="-333.8" font-family="Times,serif" font-size="14.00">template_id</text>
</g>
<!-- datafiles -->
<g id="node4" class="node">
<title>datafiles</title>
<polygon fill="none" stroke="black" points="547,-520 547,-541 658,-541 658,-520 547,-520"/>
<text text-anchor="start" x="568" y="-527.8" font-family="Times,serif" font-weight="bold" font-size="14.00">datafiles</text>
<polygon fill="none" stroke="black" points="547,-499 547,-520 571,-520 571,-499 547,-499"/>
<text text-anchor="start" x="550" y="-505.8" font-family="Times,serif" font-size="14.00">🔑</text>
<polygon fill="none" stroke="black" points="571,-499 571,-520 658,-520 658,-499 571,-499"/>
<text text-anchor="start" x="577" y="-505.8" font-family="Times,serif" font-size="14.00">datafile_id</text>
<polygon fill="none" stroke="black" points="547,-478 547,-499 571,-499 571,-478 547,-478"/>
<text text-anchor="start" x="554" y="-484.8" font-family="Times,serif" font-size="14.00"> </text>
<polygon fill="none" stroke="black" points="571,-478 571,-499 658,-499 658,-478 571,-478"/>
<text text-anchor="start" x="576" y="-484.8" font-family="Times,serif" font-size="14.00">timestamp</text>
<polygon fill="none" stroke="black" points="547,-457 547,-478 571,-478 571,-457 547,-457"/>
<text text-anchor="start" x="554" y="-463.8" font-family="Times,serif" font-size="14.00"> </text>
<polygon fill="none" stroke="black" points="571,-457 571,-478 658,-478 658,-457 571,-457"/>
<text text-anchor="start" x="583.5" y="-463.8" font-family="Times,serif" font-size="14.00">filename</text>
<polygon fill="none" stroke="black" points="547,-436 547,-457 571,-457 571,-436 547,-436"/>
<text text-anchor="start" x="554" y="-442.8" font-family="Times,serif" font-size="14.00"> </text>
<polygon fill="none" stroke="black" points="571,-436 571,-457 658,-457 658,-436 571,-436"/>
<text text-anchor="start" x="579.5" y="-442.8" font-family="Times,serif" font-size="14.00">total_recs</text>
<polygon fill="none" stroke="black" points="547,-415 547,-436 571,-436 571,-415 547,-415"/>
<text text-anchor="start" x="554" y="-421.8" font-family="Times,serif" font-size="14.00"> </text>
<polygon fill="none" stroke="black" points="571,-415 571,-436 658,-436 658,-415 571,-415"/>
<text text-anchor="start" x="574" y="-421.8" font-family="Times,serif" font-size="14.00">description</text>
</g>
<!-- codes&#45;&gt;datafiles -->
<g id="edge10" class="edge">
<title>codes:e&#45;&gt;datafiles:w</title>
<path fill="none" stroke="black" d="M488,-379C547.82,-379 490.24,-494.62 535.84,-508.62"/>
<polygon fill="black" stroke="black" points="535.62,-512.12 546,-510 536.56,-505.18 535.62,-512.12"/>
</g>
<!-- parameters -->
<g id="node8" class="node">
<title>parameters</title>
<polygon fill="none" stroke="black" points="539,-368 539,-389 665,-389 665,-368 539,-368"/>
<text text-anchor="start" x="556.5" y="-375.8" font-family="Times,serif" font-weight="bold" font-size="14.00">parameters</text>
<polygon fill="none" stroke="black" points="539,-347 539,-368 563,-368 563,-347 539,-347"/>
<text text-anchor="start" x="542" y="-353.8" font-family="Times,serif" font-size="14.00">🔑</text>
<polygon fill="none" stroke="black" points="563,-347 563,-368 665,-368 665,-347 563,-347"/>
<text text-anchor="start" x="566" y="-353.8" font-family="Times,serif" font-size="14.00">parameter_id</text>
<polygon fill="none" stroke="black" points="539,-326 539,-347 563,-347 563,-326 539,-326"/>
<text text-anchor="start" x="546" y="-332.8" font-family="Times,serif" font-size="14.00"> </text>
<polygon fill="none" stroke="black" points="563,-326 563,-347 665,-347 665,-326 563,-326"/>
<text text-anchor="start" x="575.5" y="-332.8" font-family="Times,serif" font-size="14.00">timestamp</text>
<polygon fill="none" stroke="black" points="539,-305 539,-326 563,-326 563,-305 539,-305"/>
<text text-anchor="start" x="546" y="-311.8" font-family="Times,serif" font-size="14.00"> </text>
<polygon fill="none" stroke="black" points="563,-305 563,-326 665,-326 665,-305 563,-305"/>
<text text-anchor="start" x="594.5" y="-311.8" font-family="Times,serif" font-size="14.00">value</text>
<polygon fill="none" stroke="black" points="539,-284 539,-305 563,-305 563,-284 539,-284"/>
<text text-anchor="start" x="546" y="-290.8" font-family="Times,serif" font-size="14.00"> </text>
<polygon fill="none" stroke="black" points="563,-284 563,-305 665,-305 665,-284 563,-284"/>
<text text-anchor="start" x="568.5" y="-290.8" font-family="Times,serif" font-size="14.00">argument_id</text>
<polygon fill="none" stroke="black" points="539,-263 539,-284 563,-284 563,-263 539,-263"/>
<text text-anchor="start" x="546" y="-269.8" font-family="Times,serif" font-size="14.00"> </text>
<polygon fill="none" stroke="black" points="563,-263 563,-284 665,-284 665,-263 563,-263"/>
<text text-anchor="start" x="568.5" y="-269.8" font-family="Times,serif" font-size="14.00">capability_id</text>
</g>
<!-- codes&#45;&gt;parameters -->
<g id="edge9" class="edge">
<title>codes:e&#45;&gt;parameters:w</title>
<path fill="none" stroke="black" d="M488,-358C506.4,-358 513.38,-358 527.85,-358"/>
<polygon fill="black" stroke="black" points="528,-361.5 538,-358 528,-354.5 528,-361.5"/>
</g>
<!-- templates -->
<g id="node10" class="node">
<title>templates</title>
<polygon fill="none" stroke="black" points="542,-216 542,-237 663,-237 663,-216 542,-216"/>
<text text-anchor="start" x="563" y="-223.8" font-family="Times,serif" font-weight="bold" font-size="14.00">templates</text>
<polygon fill="none" stroke="black" points="542,-195 542,-216 566,-216 566,-195 542,-195"/>
<text text-anchor="start" x="545" y="-201.8" font-family="Times,serif" font-size="14.00">🔑</text>
<polygon fill="none" stroke="black" points="566,-195 566,-216 663,-216 663,-195 566,-195"/>
<text text-anchor="start" x="572" y="-201.8" font-family="Times,serif" font-size="14.00">template_id</text>
<polygon fill="none" stroke="black" points="542,-174 542,-195 566,-195 566,-174 542,-174"/>
<text text-anchor="start" x="549" y="-180.8" font-family="Times,serif" font-size="14.00"> </text>
<polygon fill="none" stroke="black" points="566,-174 566,-195 663,-195 663,-174 566,-174"/>
<text text-anchor="start" x="576" y="-180.8" font-family="Times,serif" font-size="14.00">timestamp</text>
<polygon fill="none" stroke="black" points="542,-153 542,-174 566,-174 566,-153 542,-153"/>
<text text-anchor="start" x="549" y="-159.8" font-family="Times,serif" font-size="14.00"> </text>
<polygon fill="none" stroke="black" points="566,-153 566,-174 663,-174 663,-153 566,-153"/>
<text text-anchor="start" x="574" y="-159.8" font-family="Times,serif" font-size="14.00">description</text>
<polygon fill="none" stroke="black" points="542,-132 542,-153 566,-153 566,-132 542,-132"/>
<text text-anchor="start" x="549" y="-138.8" font-family="Times,serif" font-size="14.00"> </text>
<polygon fill="none" stroke="black" points="566,-132 566,-153 663,-153 663,-132 566,-132"/>
<text text-anchor="start" x="600" y="-138.8" font-family="Times,serif" font-size="14.00">text</text>
<polygon fill="none" stroke="black" points="542,-111 542,-132 566,-132 566,-111 542,-111"/>
<text text-anchor="start" x="549" y="-117.8" font-family="Times,serif" font-size="14.00"> </text>
<polygon fill="none" stroke="black" points="566,-111 566,-132 663,-132 663,-111 566,-111"/>
<text text-anchor="start" x="569" y="-117.8" font-family="Times,serif" font-size="14.00">capability_id</text>
</g>
<!-- codes&#45;&gt;templates -->
<g id="edge8" class="edge">
<title>codes:e&#45;&gt;templates:w</title>
<path fill="none" stroke="black" d="M488,-337C547,-337 486.49,-221.38 531.02,-207.38"/>
<polygon fill="black" stroke="black" points="531.57,-210.84 541,-206 530.61,-203.91 531.57,-210.84"/>
</g>
<!-- execs -->
<g id="node5" class="node">
<title>execs</title>
<polygon fill="none" stroke="black" points="185,-474 185,-495 309,-495 309,-474 185,-474"/>
<text text-anchor="start" x="225.5" y="-481.8" font-family="Times,serif" font-weight="bold" font-size="14.00">execs</text>
<polygon fill="none" stroke="black" points="185,-453 185,-474 209,-474 209,-453 185,-453"/>
<text text-anchor="start" x="188" y="-459.8" font-family="Times,serif" font-size="14.00">🔑</text>
<polygon fill="none" stroke="black" points="209,-453 209,-474 309,-474 309,-453 209,-453"/>
<text text-anchor="start" x="232.5" y="-459.8" font-family="Times,serif" font-size="14.00">exec_id</text>
<polygon fill="none" stroke="black" points="185,-432 185,-453 209,-453 209,-432 185,-432"/>
<text text-anchor="start" x="192" y="-438.8" font-family="Times,serif" font-size="14.00"> </text>
<polygon fill="none" stroke="black" points="209,-432 209,-453 309,-453 309,-432 209,-432"/>
<text text-anchor="start" x="220.5" y="-438.8" font-family="Times,serif" font-size="14.00">timestamp</text>
<polygon fill="none" stroke="black" points="185,-411 185,-432 209,-432 209,-411 185,-411"/>
<text text-anchor="start" x="192" y="-417.8" font-family="Times,serif" font-size="14.00"> </text>
<polygon fill="none" stroke="black" points="209,-411 209,-432 309,-432 309,-411 209,-411"/>
<text text-anchor="start" x="232" y="-417.8" font-family="Times,serif" font-size="14.00">code_id</text>
<polygon fill="none" stroke="black" points="185,-390 185,-411 209,-411 209,-390 185,-390"/>
<text text-anchor="start" x="192" y="-396.8" font-family="Times,serif" font-size="14.00"> </text>
<polygon fill="none" stroke="black" points="209,-390 209,-411 309,-411 309,-390 209,-390"/>
<text text-anchor="start" x="227.5" y="-396.8" font-family="Times,serif" font-size="14.00">sys_desc</text>
<polygon fill="none" stroke="black" points="185,-369 185,-390 209,-390 209,-369 185,-369"/>
<text text-anchor="start" x="192" y="-375.8" font-family="Times,serif" font-size="14.00"> </text>
<polygon fill="none" stroke="black" points="209,-369 209,-390 309,-390 309,-369 209,-369"/>
<text text-anchor="start" x="212" y="-375.8" font-family="Times,serif" font-size="14.00">elapsed_time</text>
<polygon fill="none" stroke="black" points="185,-348 185,-369 209,-369 209,-348 185,-348"/>
<text text-anchor="start" x="192" y="-354.8" font-family="Times,serif" font-size="14.00"> </text>
<polygon fill="none" stroke="black" points="209,-348 209,-369 309,-369 309,-348 209,-348"/>
<text text-anchor="start" x="212" y="-354.8" font-family="Times,serif" font-size="14.00">process_time</text>
<polygon fill="none" stroke="black" points="185,-327 185,-348 209,-348 209,-327 185,-327"/>
<text text-anchor="start" x="192" y="-333.8" font-family="Times,serif" font-size="14.00"> </text>
<polygon fill="none" stroke="black" points="209,-327 209,-348 309,-348 309,-327 209,-327"/>
<text text-anchor="start" x="239.5" y="-333.8" font-family="Times,serif" font-size="14.00">value</text>
</g>
<!-- execs&#45;&gt;codes -->
<g id="edge11" class="edge">
<title>execs:e&#45;&gt;codes:w</title>
<path fill="none" stroke="black" d="M310,-422C328.4,-422 335.38,-422 349.85,-422"/>
<polygon fill="black" stroke="black" points="350,-425.5 360,-422 350,-418.5 350,-425.5"/>
</g>
<!-- parameters&#45;&gt;arguments -->
<g id="edge2" class="edge">
<title>parameters:e&#45;&gt;arguments:w</title>
<path fill="none" stroke="black" d="M666,-294C743.11,-294 648.33,-452.07 709.33,-466.89"/>
<polygon fill="black" stroke="black" points="709.18,-470.39 719.5,-468 709.94,-463.43 709.18,-470.39"/>
</g>
<!-- parameters&#45;&gt;capabilities -->
<g id="edge1" class="edge">
<title>parameters:e&#45;&gt;capabilities:w</title>
<path fill="none" stroke="black" d="M666,-273C733.84,-273 656.9,-136.61 709.47,-122.22"/>
<polygon fill="black" stroke="black" points="710,-125.69 719.5,-121 709.15,-118.74 710,-125.69"/>
</g>
<!-- paramlims -->
<g id="node9" class="node">
<title>paramlims</title>
<polygon fill="none" stroke="black" points="717.5,-326 717.5,-347 844.5,-347 844.5,-326 717.5,-326"/>
<text text-anchor="start" x="738.5" y="-333.8" font-family="Times,serif" font-weight="bold" font-size="14.00">paramlims</text>
<polygon fill="none" stroke="black" points="717.5,-305 717.5,-326 741.5,-326 741.5,-305 717.5,-305"/>
<text text-anchor="start" x="720.5" y="-311.8" font-family="Times,serif" font-size="14.00">🔑</text>
<polygon fill="none" stroke="black" points="741.5,-305 741.5,-326 844.5,-326 844.5,-305 741.5,-305"/>
<text text-anchor="start" x="748.5" y="-311.8" font-family="Times,serif" font-size="14.00">paramlim_id</text>
<polygon fill="none" stroke="black" points="717.5,-284 717.5,-305 741.5,-305 741.5,-284 717.5,-284"/>
<text text-anchor="start" x="724.5" y="-290.8" font-family="Times,serif" font-size="14.00"> </text>
<polygon fill="none" stroke="black" points="741.5,-284 741.5,-305 844.5,-305 844.5,-284 741.5,-284"/>
<text text-anchor="start" x="754.5" y="-290.8" font-family="Times,serif" font-size="14.00">timestamp</text>
<polygon fill="none" stroke="black" points="717.5,-263 717.5,-284 741.5,-284 741.5,-263 717.5,-263"/>
<text text-anchor="start" x="724.5" y="-269.8" font-family="Times,serif" font-size="14.00"> </text>
<polygon fill="none" stroke="black" points="741.5,-263 741.5,-284 844.5,-284 844.5,-263 741.5,-263"/>
<text text-anchor="start" x="746" y="-269.8" font-family="Times,serif" font-size="14.00">extreme_min</text>
<polygon fill="none" stroke="black" points="717.5,-242 717.5,-263 741.5,-263 741.5,-242 717.5,-242"/>
<text text-anchor="start" x="724.5" y="-248.8" font-family="Times,serif" font-size="14.00"> </text>
<polygon fill="none" stroke="black" points="741.5,-242 741.5,-263 844.5,-263 844.5,-242 741.5,-242"/>
<text text-anchor="start" x="744.5" y="-248.8" font-family="Times,serif" font-size="14.00">extreme_max</text>
<polygon fill="none" stroke="black" points="717.5,-221 717.5,-242 741.5,-242 741.5,-221 717.5,-221"/>
<text text-anchor="start" x="724.5" y="-227.8" font-family="Times,serif" font-size="14.00"> </text>
<polygon fill="none" stroke="black" points="741.5,-221 741.5,-242 844.5,-242 844.5,-221 741.5,-221"/>
<text text-anchor="start" x="749" y="-227.8" font-family="Times,serif" font-size="14.00">created_min</text>
<polygon fill="none" stroke="black" points="717.5,-200 717.5,-221 741.5,-221 741.5,-200 717.5,-200"/>
<text text-anchor="start" x="724.5" y="-206.8" font-family="Times,serif" font-size="14.00"> </text>
<polygon fill="none" stroke="black" points="741.5,-200 741.5,-221 844.5,-221 844.5,-200 741.5,-200"/>
<text text-anchor="start" x="747.5" y="-206.8" font-family="Times,serif" font-size="14.00">created_max</text>
<polygon fill="none" stroke="black" points="717.5,-179 717.5,-200 741.5,-200 741.5,-179 717.5,-179"/>
<text text-anchor="start" x="724.5" y="-185.8" font-family="Times,serif" font-size="14.00"> </text>
<polygon fill="none" stroke="black" points="741.5,-179 741.5,-200 844.5,-200 844.5,-179 741.5,-179"/>
<text text-anchor="start" x="761" y="-185.8" font-family="Times,serif" font-size="14.00">model_id</text>
</g>
<!-- paramlims&#45;&gt;models -->
<g id="edge7" class="edge">
<title>paramlims:e&#45;&gt;models:w</title>
<path fill="none" stroke="black" d="M845.5,-189C863.9,-189 870.88,-189 885.35,-189"/>
<polygon fill="black" stroke="black" points="885.5,-192.5 895.5,-189 885.5,-185.5 885.5,-192.5"/>
</g>
<!-- templates&#45;&gt;capabilities -->
<g id="edge3" class="edge">
<title>templates:e&#45;&gt;capabilities:w</title>
<path fill="none" stroke="black" d="M664,-121C684.81,-121 692.45,-121 709.15,-121"/>
<polygon fill="black" stroke="black" points="709.5,-124.5 719.5,-121 709.5,-117.5 709.5,-124.5"/>
</g>
<!-- tests -->
<g id="node11" class="node">
<title>tests</title>
<polygon fill="none" stroke="black" points="8.5,-528 8.5,-549 133.5,-549 133.5,-528 8.5,-528"/>
<text text-anchor="start" x="51" y="-535.8" font-family="Times,serif" font-weight="bold" font-size="14.00">tests</text>
<polygon fill="none" stroke="black" points="8.5,-507 8.5,-528 32.5,-528 32.5,-507 8.5,-507"/>
<text text-anchor="start" x="11.5" y="-513.8" font-family="Times,serif" font-size="14.00">🔑</text>
<polygon fill="none" stroke="black" points="32.5,-507 32.5,-528 133.5,-528 133.5,-507 32.5,-507"/>
<text text-anchor="start" x="58.5" y="-513.8" font-family="Times,serif" font-size="14.00">test_id</text>
<polygon fill="none" stroke="black" points="8.5,-486 8.5,-507 32.5,-507 32.5,-486 8.5,-486"/>
<text text-anchor="start" x="15.5" y="-492.8" font-family="Times,serif" font-size="14.00"> </text>
<polygon fill="none" stroke="black" points="32.5,-486 32.5,-507 133.5,-507 133.5,-486 32.5,-486"/>
<text text-anchor="start" x="44.5" y="-492.8" font-family="Times,serif" font-size="14.00">timestamp</text>
<polygon fill="none" stroke="black" points="8.5,-465 8.5,-486 32.5,-486 32.5,-465 8.5,-465"/>
<text text-anchor="start" x="15.5" y="-471.8" font-family="Times,serif" font-size="14.00"> </text>
<polygon fill="none" stroke="black" points="32.5,-465 32.5,-486 133.5,-486 133.5,-465 32.5,-465"/>
<text text-anchor="start" x="41" y="-471.8" font-family="Times,serif" font-size="14.00">left_exec_id</text>
<polygon fill="none" stroke="black" points="8.5,-444 8.5,-465 32.5,-465 32.5,-444 8.5,-444"/>
<text text-anchor="start" x="15.5" y="-450.8" font-family="Times,serif" font-size="14.00"> </text>
<polygon fill="none" stroke="black" points="32.5,-444 32.5,-465 133.5,-465 133.5,-444 32.5,-444"/>
<text text-anchor="start" x="35.5" y="-450.8" font-family="Times,serif" font-size="14.00">right_exec_id</text>
<polygon fill="none" stroke="black" points="8.5,-423 8.5,-444 32.5,-444 32.5,-423 8.5,-423"/>
<text text-anchor="start" x="15.5" y="-429.8" font-family="Times,serif" font-size="14.00"> </text>
<polygon fill="none" stroke="black" points="32.5,-423 32.5,-444 133.5,-444 133.5,-423 32.5,-423"/>
<text text-anchor="start" x="49.5" y="-429.8" font-family="Times,serif" font-size="14.00">tolerance</text>
<polygon fill="none" stroke="black" points="8.5,-402 8.5,-423 32.5,-423 32.5,-402 8.5,-402"/>
<text text-anchor="start" x="15.5" y="-408.8" font-family="Times,serif" font-size="14.00"> </text>
<polygon fill="none" stroke="black" points="32.5,-402 32.5,-423 133.5,-423 133.5,-402 32.5,-402"/>
<text text-anchor="start" x="63.5" y="-408.8" font-family="Times,serif" font-size="14.00">value</text>
</g>
<!-- tests&#45;&gt;execs -->
<g id="edge12" class="edge">
<title>tests:e&#45;&gt;execs:w</title>
<path fill="none" stroke="black" d="M134.5,-454C153.09,-454 159.44,-460.86 173.83,-463.22"/>
<polygon fill="black" stroke="black" points="173.76,-466.72 184,-464 174.3,-459.74 173.76,-466.72"/>
</g>
<!-- tests&#45;&gt;execs -->
<g id="edge13" class="edge">
<title>tests:e&#45;&gt;execs:w</title>
<path fill="none" stroke="black" d="M134.5,-475C153.16,-475 159.41,-467.46 173.8,-464.86"/>
<polygon fill="black" stroke="black" points="174.33,-468.33 184,-464 173.74,-461.36 174.33,-468.33"/>
</g>
</g>
</svg>
