<?xml version="1.0" encoding="UTF-8" standalone="no"?>
<!DOCTYPE svg PUBLIC "-//W3C//DTD SVG 1.1//EN"
 "http://www.w3.org/Graphics/SVG/1.1/DTD/svg11.dtd">
<!-- Generated by graphviz version 2.43.0 (0)
 -->
<!-- Title: structs Pages: 1 -->
<svg width="653pt" height="749pt"
 viewBox="0.00 0.00 653.00 749.00" xmlns="http://www.w3.org/2000/svg" xmlns:xlink="http://www.w3.org/1999/xlink">
<g id="graph0" class="graph" transform="scale(1 1) rotate(0) translate(4 745)">
<title>structs</title>
<polygon fill="white" stroke="transparent" points="-4,4 -4,-745 649,-745 649,4 -4,4"/>
<!-- arguments -->
<g id="node1" class="node">
<title>arguments</title>
<polygon fill="none" stroke="black" points="189,-284 189,-305 310,-305 310,-284 189,-284"/>
<text text-anchor="start" x="206" y="-291.8" font-family="Times,serif" font-weight="bold" font-size="14.00">arguments</text>
<polygon fill="none" stroke="black" points="189,-263 189,-284 213,-284 213,-263 189,-263"/>
<text text-anchor="start" x="192" y="-269.8" font-family="Times,serif" font-size="14.00">🔑</text>
<polygon fill="none" stroke="black" points="213,-263 213,-284 310,-284 310,-263 213,-263"/>
<text text-anchor="start" x="216" y="-269.8" font-family="Times,serif" font-size="14.00">argument_id</text>
<polygon fill="none" stroke="black" points="189,-242 189,-263 213,-263 213,-242 189,-242"/>
<text text-anchor="start" x="196" y="-248.8" font-family="Times,serif" font-size="14.00"> </text>
<polygon fill="none" stroke="black" points="213,-242 213,-263 310,-263 310,-242 213,-242"/>
<text text-anchor="start" x="223" y="-248.8" font-family="Times,serif" font-size="14.00">timestamp</text>
<polygon fill="none" stroke="black" points="189,-221 189,-242 213,-242 213,-221 189,-221"/>
<text text-anchor="start" x="196" y="-227.8" font-family="Times,serif" font-size="14.00"> </text>
<polygon fill="none" stroke="black" points="213,-221 213,-242 310,-242 310,-221 213,-221"/>
<text text-anchor="start" x="221" y="-227.8" font-family="Times,serif" font-size="14.00">description</text>
<polygon fill="none" stroke="black" points="189,-200 189,-221 213,-221 213,-200 189,-200"/>
<text text-anchor="start" x="196" y="-206.8" font-family="Times,serif" font-size="14.00"> </text>
<polygon fill="none" stroke="black" points="213,-200 213,-221 310,-221 310,-200 213,-200"/>
<text text-anchor="start" x="229.5" y="-206.8" font-family="Times,serif" font-size="14.00">model_id</text>
<polygon fill="none" stroke="black" points="189,-179 189,-200 213,-200 213,-179 189,-179"/>
<text text-anchor="start" x="196" y="-185.8" font-family="Times,serif" font-size="14.00"> </text>
<polygon fill="none" stroke="black" points="213,-179 213,-200 310,-200 310,-179 213,-179"/>
<text text-anchor="start" x="242" y="-185.8" font-family="Times,serif" font-size="14.00">value</text>
</g>
<!-- models -->
<g id="node7" class="node">
<title>models</title>
<polygon fill="none" stroke="black" points="363.5,-199 363.5,-220 474.5,-220 474.5,-199 363.5,-199"/>
<text text-anchor="start" x="390.5" y="-206.8" font-family="Times,serif" font-weight="bold" font-size="14.00">models</text>
<polygon fill="none" stroke="black" points="363.5,-178 363.5,-199 387.5,-199 387.5,-178 363.5,-178"/>
<text text-anchor="start" x="366.5" y="-184.8" font-family="Times,serif" font-size="14.00">🔑</text>
<polygon fill="none" stroke="black" points="387.5,-178 387.5,-199 474.5,-199 474.5,-178 387.5,-178"/>
<text text-anchor="start" x="399" y="-184.8" font-family="Times,serif" font-size="14.00">model_id</text>
<polygon fill="none" stroke="black" points="363.5,-157 363.5,-178 387.5,-178 387.5,-157 363.5,-157"/>
<text text-anchor="start" x="370.5" y="-163.8" font-family="Times,serif" font-size="14.00"> </text>
<polygon fill="none" stroke="black" points="387.5,-157 387.5,-178 474.5,-178 474.5,-157 387.5,-157"/>
<text text-anchor="start" x="392.5" y="-163.8" font-family="Times,serif" font-size="14.00">timestamp</text>
<polygon fill="none" stroke="black" points="363.5,-136 363.5,-157 387.5,-157 387.5,-136 363.5,-136"/>
<text text-anchor="start" x="370.5" y="-142.8" font-family="Times,serif" font-size="14.00"> </text>
<polygon fill="none" stroke="black" points="387.5,-136 387.5,-157 474.5,-157 474.5,-136 387.5,-136"/>
<text text-anchor="start" x="390.5" y="-142.8" font-family="Times,serif" font-size="14.00">description</text>
</g>
<!-- arguments&#45;&gt;models -->
<g id="edge4" class="edge">
<title>arguments:e&#45;&gt;models:w</title>
<path fill="none" stroke="black" d="M311,-210C331.86,-210 336.58,-195.05 352.4,-190.38"/>
<polygon fill="black" stroke="black" points="353.06,-193.82 362.5,-189 352.12,-186.88 353.06,-193.82"/>
</g>
<!-- capabilities -->
<g id="node2" class="node">
<title>capabilities</title>
<polygon fill="none" stroke="black" points="189,-131 189,-152 310,-152 310,-131 189,-131"/>
<text text-anchor="start" x="204" y="-138.8" font-family="Times,serif" font-weight="bold" font-size="14.00">capabilities</text>
<polygon fill="none" stroke="black" points="189,-110 189,-131 213,-131 213,-110 189,-110"/>
<text text-anchor="start" x="192" y="-116.8" font-family="Times,serif" font-size="14.00">🔑</text>
<polygon fill="none" stroke="black" points="213,-110 213,-131 310,-131 310,-110 213,-110"/>
<text text-anchor="start" x="216" y="-116.8" font-family="Times,serif" font-size="14.00">capability_id</text>
<polygon fill="none" stroke="black" points="189,-89 189,-110 213,-110 213,-89 189,-89"/>
<text text-anchor="start" x="196" y="-95.8" font-family="Times,serif" font-size="14.00"> </text>
<polygon fill="none" stroke="black" points="213,-89 213,-110 310,-110 310,-89 213,-89"/>
<text text-anchor="start" x="223" y="-95.8" font-family="Times,serif" font-size="14.00">timestamp</text>
<polygon fill="none" stroke="black" points="189,-68 189,-89 213,-89 213,-68 189,-68"/>
<text text-anchor="start" x="196" y="-74.8" font-family="Times,serif" font-size="14.00"> </text>
<polygon fill="none" stroke="black" points="213,-68 213,-89 310,-89 310,-68 213,-68"/>
<text text-anchor="start" x="229.5" y="-74.8" font-family="Times,serif" font-size="14.00">model_id</text>
<polygon fill="none" stroke="black" points="189,-47 189,-68 213,-68 213,-47 189,-47"/>
<text text-anchor="start" x="196" y="-53.8" font-family="Times,serif" font-size="14.00"> </text>
<polygon fill="none" stroke="black" points="213,-47 213,-68 310,-68 310,-47 213,-47"/>
<text text-anchor="start" x="227" y="-53.8" font-family="Times,serif" font-size="14.00">library_id</text>
</g>
<!-- libraries -->
<g id="node6" class="node">
<title>libraries</title>
<polygon fill="none" stroke="black" points="363.5,-67 363.5,-88 474.5,-88 474.5,-67 363.5,-67"/>
<text text-anchor="start" x="385.5" y="-74.8" font-family="Times,serif" font-weight="bold" font-size="14.00">libraries</text>
<polygon fill="none" stroke="black" points="363.5,-46 363.5,-67 387.5,-67 387.5,-46 363.5,-46"/>
<text text-anchor="start" x="366.5" y="-52.8" font-family="Times,serif" font-size="14.00">🔑</text>
<polygon fill="none" stroke="black" points="387.5,-46 387.5,-67 474.5,-67 474.5,-46 387.5,-46"/>
<text text-anchor="start" x="396.5" y="-52.8" font-family="Times,serif" font-size="14.00">library_id</text>
<polygon fill="none" stroke="black" points="363.5,-25 363.5,-46 387.5,-46 387.5,-25 363.5,-25"/>
<text text-anchor="start" x="370.5" y="-31.8" font-family="Times,serif" font-size="14.00"> </text>
<polygon fill="none" stroke="black" points="387.5,-25 387.5,-46 474.5,-46 474.5,-25 387.5,-25"/>
<text text-anchor="start" x="392.5" y="-31.8" font-family="Times,serif" font-size="14.00">timestamp</text>
<polygon fill="none" stroke="black" points="363.5,-4 363.5,-25 387.5,-25 387.5,-4 363.5,-4"/>
<text text-anchor="start" x="370.5" y="-10.8" font-family="Times,serif" font-size="14.00"> </text>
<polygon fill="none" stroke="black" points="387.5,-4 387.5,-25 474.5,-25 474.5,-4 387.5,-4"/>
<text text-anchor="start" x="390.5" y="-10.8" font-family="Times,serif" font-size="14.00">description</text>
</g>
<!-- capabilities&#45;&gt;libraries -->
<g id="edge5" class="edge">
<title>capabilities:e&#45;&gt;libraries:w</title>
<path fill="none" stroke="black" d="M311,-57C330.13,-57 337.27,-57 352.47,-57"/>
<polygon fill="black" stroke="black" points="352.5,-60.5 362.5,-57 352.5,-53.5 352.5,-60.5"/>
</g>
<!-- capabilities&#45;&gt;models -->
<g id="edge6" class="edge">
<title>capabilities:e&#45;&gt;models:w</title>
<path fill="none" stroke="black" d="M311,-78C361.56,-78 315.62,-173.94 352.61,-187.43"/>
<polygon fill="black" stroke="black" points="352.08,-190.89 362.5,-189 353.17,-183.98 352.08,-190.89"/>
</g>
<!-- codes -->
<g id="node3" class="node">
<title>codes</title>
<polygon fill="none" stroke="black" points="365.5,-436 365.5,-457 472.5,-457 472.5,-436 365.5,-436"/>
<text text-anchor="start" x="396.5" y="-443.8" font-family="Times,serif" font-weight="bold" font-size="14.00">codes</text>
<polygon fill="none" stroke="black" points="365.5,-415 365.5,-436 389.5,-436 389.5,-415 365.5,-415"/>
<text text-anchor="start" x="368.5" y="-421.8" font-family="Times,serif" font-size="14.00">🔑</text>
<polygon fill="none" stroke="black" points="389.5,-415 389.5,-436 472.5,-436 472.5,-415 389.5,-415"/>
<text text-anchor="start" x="404" y="-421.8" font-family="Times,serif" font-size="14.00">code_id</text>
<polygon fill="none" stroke="black" points="365.5,-394 365.5,-415 389.5,-415 389.5,-394 365.5,-394"/>
<text text-anchor="start" x="372.5" y="-400.8" font-family="Times,serif" font-size="14.00"> </text>
<polygon fill="none" stroke="black" points="389.5,-394 389.5,-415 472.5,-415 472.5,-394 389.5,-394"/>
<text text-anchor="start" x="392.5" y="-400.8" font-family="Times,serif" font-size="14.00">timestamp</text>
<polygon fill="none" stroke="black" points="365.5,-373 365.5,-394 389.5,-394 389.5,-373 365.5,-373"/>
<text text-anchor="start" x="372.5" y="-379.8" font-family="Times,serif" font-size="14.00"> </text>
<polygon fill="none" stroke="black" points="389.5,-373 389.5,-394 472.5,-394 472.5,-373 389.5,-373"/>
<text text-anchor="start" x="398" y="-379.8" font-family="Times,serif" font-size="14.00">language</text>
<polygon fill="none" stroke="black" points="365.5,-352 365.5,-373 389.5,-373 389.5,-352 365.5,-352"/>
<text text-anchor="start" x="372.5" y="-358.8" font-family="Times,serif" font-size="14.00"> </text>
<polygon fill="none" stroke="black" points="389.5,-352 389.5,-373 472.5,-373 472.5,-352 389.5,-352"/>
<text text-anchor="start" x="393.5" y="-358.8" font-family="Times,serif" font-size="14.00">datafile_id</text>
<polygon fill="none" stroke="black" points="365.5,-331 365.5,-352 389.5,-352 389.5,-331 365.5,-331"/>
<text text-anchor="start" x="372.5" y="-337.8" font-family="Times,serif" font-size="14.00"> </text>
<polygon fill="none" stroke="black" points="389.5,-331 389.5,-352 472.5,-352 472.5,-331 389.5,-331"/>
<text text-anchor="start" x="397.5" y="-337.8" font-family="Times,serif" font-size="14.00">param_id</text>
</g>
<!-- datafiles -->
<g id="node4" class="node">
<title>datafiles</title>
<polygon fill="none" stroke="black" points="526.5,-438 526.5,-459 637.5,-459 637.5,-438 526.5,-438"/>
<text text-anchor="start" x="547.5" y="-445.8" font-family="Times,serif" font-weight="bold" font-size="14.00">datafiles</text>
<polygon fill="none" stroke="black" points="526.5,-417 526.5,-438 550.5,-438 550.5,-417 526.5,-417"/>
<text text-anchor="start" x="529.5" y="-423.8" font-family="Times,serif" font-size="14.00">🔑</text>
<polygon fill="none" stroke="black" points="550.5,-417 550.5,-438 637.5,-438 637.5,-417 550.5,-417"/>
<text text-anchor="start" x="556.5" y="-423.8" font-family="Times,serif" font-size="14.00">datafile_id</text>
<polygon fill="none" stroke="black" points="526.5,-396 526.5,-417 550.5,-417 550.5,-396 526.5,-396"/>
<text text-anchor="start" x="533.5" y="-402.8" font-family="Times,serif" font-size="14.00"> </text>
<polygon fill="none" stroke="black" points="550.5,-396 550.5,-417 637.5,-417 637.5,-396 550.5,-396"/>
<text text-anchor="start" x="555.5" y="-402.8" font-family="Times,serif" font-size="14.00">timestamp</text>
<polygon fill="none" stroke="black" points="526.5,-375 526.5,-396 550.5,-396 550.5,-375 526.5,-375"/>
<text text-anchor="start" x="533.5" y="-381.8" font-family="Times,serif" font-size="14.00"> </text>
<polygon fill="none" stroke="black" points="550.5,-375 550.5,-396 637.5,-396 637.5,-375 550.5,-375"/>
<text text-anchor="start" x="563" y="-381.8" font-family="Times,serif" font-size="14.00">filename</text>
<polygon fill="none" stroke="black" points="526.5,-354 526.5,-375 550.5,-375 550.5,-354 526.5,-354"/>
<text text-anchor="start" x="533.5" y="-360.8" font-family="Times,serif" font-size="14.00"> </text>
<polygon fill="none" stroke="black" points="550.5,-354 550.5,-375 637.5,-375 637.5,-354 550.5,-354"/>
<text text-anchor="start" x="559" y="-360.8" font-family="Times,serif" font-size="14.00">total_recs</text>
<polygon fill="none" stroke="black" points="526.5,-333 526.5,-354 550.5,-354 550.5,-333 526.5,-333"/>
<text text-anchor="start" x="533.5" y="-339.8" font-family="Times,serif" font-size="14.00"> </text>
<polygon fill="none" stroke="black" points="550.5,-333 550.5,-354 637.5,-354 637.5,-333 550.5,-333"/>
<text text-anchor="start" x="553.5" y="-339.8" font-family="Times,serif" font-size="14.00">description</text>
</g>
<!-- codes&#45;&gt;datafiles -->
<g id="edge8" class="edge">
<title>codes:e&#45;&gt;datafiles:w</title>
<path fill="none" stroke="black" d="M473.5,-362C506.91,-362 492.27,-414.81 515.55,-425.95"/>
<polygon fill="black" stroke="black" points="515,-429.41 525.5,-428 516.41,-422.56 515,-429.41"/>
</g>
<!-- params -->
<g id="node10" class="node">
<title>params</title>
<polygon fill="none" stroke="black" points="528.5,-285 528.5,-306 635.5,-306 635.5,-285 528.5,-285"/>
<text text-anchor="start" x="552.5" y="-292.8" font-family="Times,serif" font-weight="bold" font-size="14.00">params</text>
<polygon fill="none" stroke="black" points="528.5,-264 528.5,-285 552.5,-285 552.5,-264 528.5,-264"/>
<text text-anchor="start" x="531.5" y="-270.8" font-family="Times,serif" font-size="14.00">🔑</text>
<polygon fill="none" stroke="black" points="552.5,-264 552.5,-285 635.5,-285 635.5,-264 552.5,-264"/>
<text text-anchor="start" x="560.5" y="-270.8" font-family="Times,serif" font-size="14.00">param_id</text>
<polygon fill="none" stroke="black" points="528.5,-243 528.5,-264 552.5,-264 552.5,-243 528.5,-243"/>
<text text-anchor="start" x="535.5" y="-249.8" font-family="Times,serif" font-size="14.00"> </text>
<polygon fill="none" stroke="black" points="552.5,-243 552.5,-264 635.5,-264 635.5,-243 552.5,-243"/>
<text text-anchor="start" x="572" y="-249.8" font-family="Times,serif" font-size="14.00">model</text>
<polygon fill="none" stroke="black" points="528.5,-222 528.5,-243 552.5,-243 552.5,-222 528.5,-222"/>
<text text-anchor="start" x="535.5" y="-228.8" font-family="Times,serif" font-size="14.00"> </text>
<polygon fill="none" stroke="black" points="552.5,-222 552.5,-243 635.5,-243 635.5,-222 552.5,-222"/>
<text text-anchor="start" x="555.5" y="-228.8" font-family="Times,serif" font-size="14.00">timestamp</text>
<polygon fill="none" stroke="black" points="528.5,-201 528.5,-222 552.5,-222 552.5,-201 528.5,-201"/>
<text text-anchor="start" x="535.5" y="-207.8" font-family="Times,serif" font-size="14.00"> </text>
<polygon fill="none" stroke="black" points="552.5,-201 552.5,-222 635.5,-222 635.5,-201 552.5,-201"/>
<text text-anchor="start" x="574.5" y="-207.8" font-family="Times,serif" font-size="14.00">value</text>
</g>
<!-- codes&#45;&gt;params -->
<g id="edge7" class="edge">
<title>codes:e&#45;&gt;params:w</title>
<path fill="none" stroke="black" d="M473.5,-341C507.55,-341 493.41,-287.73 517.67,-276.9"/>
<polygon fill="black" stroke="black" points="518.35,-280.34 527.5,-275 517.02,-273.47 518.35,-280.34"/>
</g>
<!-- execs -->
<g id="node5" class="node">
<title>execs</title>
<polygon fill="none" stroke="black" points="187,-478 187,-499 311,-499 311,-478 187,-478"/>
<text text-anchor="start" x="227.5" y="-485.8" font-family="Times,serif" font-weight="bold" font-size="14.00">execs</text>
<polygon fill="none" stroke="black" points="187,-457 187,-478 211,-478 211,-457 187,-457"/>
<text text-anchor="start" x="190" y="-463.8" font-family="Times,serif" font-size="14.00">🔑</text>
<polygon fill="none" stroke="black" points="211,-457 211,-478 311,-478 311,-457 211,-457"/>
<text text-anchor="start" x="234.5" y="-463.8" font-family="Times,serif" font-size="14.00">exec_id</text>
<polygon fill="none" stroke="black" points="187,-436 187,-457 211,-457 211,-436 187,-436"/>
<text text-anchor="start" x="194" y="-442.8" font-family="Times,serif" font-size="14.00"> </text>
<polygon fill="none" stroke="black" points="211,-436 211,-457 311,-457 311,-436 211,-436"/>
<text text-anchor="start" x="222.5" y="-442.8" font-family="Times,serif" font-size="14.00">timestamp</text>
<polygon fill="none" stroke="black" points="187,-415 187,-436 211,-436 211,-415 187,-415"/>
<text text-anchor="start" x="194" y="-421.8" font-family="Times,serif" font-size="14.00"> </text>
<polygon fill="none" stroke="black" points="211,-415 211,-436 311,-436 311,-415 211,-415"/>
<text text-anchor="start" x="234" y="-421.8" font-family="Times,serif" font-size="14.00">code_id</text>
<polygon fill="none" stroke="black" points="187,-394 187,-415 211,-415 211,-394 187,-394"/>
<text text-anchor="start" x="194" y="-400.8" font-family="Times,serif" font-size="14.00"> </text>
<polygon fill="none" stroke="black" points="211,-394 211,-415 311,-415 311,-394 211,-394"/>
<text text-anchor="start" x="229.5" y="-400.8" font-family="Times,serif" font-size="14.00">sys_desc</text>
<polygon fill="none" stroke="black" points="187,-373 187,-394 211,-394 211,-373 187,-373"/>
<text text-anchor="start" x="194" y="-379.8" font-family="Times,serif" font-size="14.00"> </text>
<polygon fill="none" stroke="black" points="211,-373 211,-394 311,-394 311,-373 211,-373"/>
<text text-anchor="start" x="214" y="-379.8" font-family="Times,serif" font-size="14.00">elapsed_time</text>
<polygon fill="none" stroke="black" points="187,-352 187,-373 211,-373 211,-352 187,-352"/>
<text text-anchor="start" x="194" y="-358.8" font-family="Times,serif" font-size="14.00"> </text>
<polygon fill="none" stroke="black" points="211,-352 211,-373 311,-373 311,-352 211,-352"/>
<text text-anchor="start" x="214" y="-358.8" font-family="Times,serif" font-size="14.00">process_time</text>
<polygon fill="none" stroke="black" points="187,-331 187,-352 211,-352 211,-331 187,-331"/>
<text text-anchor="start" x="194" y="-337.8" font-family="Times,serif" font-size="14.00"> </text>
<polygon fill="none" stroke="black" points="211,-331 211,-352 311,-352 311,-331 211,-331"/>
<text text-anchor="start" x="241.5" y="-337.8" font-family="Times,serif" font-size="14.00">value</text>
</g>
<!-- execs&#45;&gt;codes -->
<g id="edge9" class="edge">
<title>execs:e&#45;&gt;codes:w</title>
<path fill="none" stroke="black" d="M312,-426C331.51,-426 338.78,-426 354.27,-426"/>
<polygon fill="black" stroke="black" points="354.5,-429.5 364.5,-426 354.5,-422.5 354.5,-429.5"/>
</g>
<!-- parameters -->
<g id="node8" class="node">
<title>parameters</title>
<polygon fill="none" stroke="black" points="8.5,-348 8.5,-369 134.5,-369 134.5,-348 8.5,-348"/>
<text text-anchor="start" x="26" y="-355.8" font-family="Times,serif" font-weight="bold" font-size="14.00">parameters</text>
<polygon fill="none" stroke="black" points="8.5,-327 8.5,-348 32.5,-348 32.5,-327 8.5,-327"/>
<text text-anchor="start" x="11.5" y="-333.8" font-family="Times,serif" font-size="14.00">🔑</text>
<polygon fill="none" stroke="black" points="32.5,-327 32.5,-348 134.5,-348 134.5,-327 32.5,-327"/>
<text text-anchor="start" x="35.5" y="-333.8" font-family="Times,serif" font-size="14.00">parameter_id</text>
<polygon fill="none" stroke="black" points="8.5,-306 8.5,-327 32.5,-327 32.5,-306 8.5,-306"/>
<text text-anchor="start" x="15.5" y="-312.8" font-family="Times,serif" font-size="14.00"> </text>
<polygon fill="none" stroke="black" points="32.5,-306 32.5,-327 134.5,-327 134.5,-306 32.5,-306"/>
<text text-anchor="start" x="45" y="-312.8" font-family="Times,serif" font-size="14.00">timestamp</text>
<polygon fill="none" stroke="black" points="8.5,-285 8.5,-306 32.5,-306 32.5,-285 8.5,-285"/>
<text text-anchor="start" x="15.5" y="-291.8" font-family="Times,serif" font-size="14.00"> </text>
<polygon fill="none" stroke="black" points="32.5,-285 32.5,-306 134.5,-306 134.5,-285 32.5,-285"/>
<text text-anchor="start" x="64" y="-291.8" font-family="Times,serif" font-size="14.00">value</text>
<polygon fill="none" stroke="black" points="8.5,-264 8.5,-285 32.5,-285 32.5,-264 8.5,-264"/>
<text text-anchor="start" x="15.5" y="-270.8" font-family="Times,serif" font-size="14.00"> </text>
<polygon fill="none" stroke="black" points="32.5,-264 32.5,-285 134.5,-285 134.5,-264 32.5,-264"/>
<text text-anchor="start" x="38" y="-270.8" font-family="Times,serif" font-size="14.00">argument_id</text>
<polygon fill="none" stroke="black" points="8.5,-243 8.5,-264 32.5,-264 32.5,-243 8.5,-243"/>
<text text-anchor="start" x="15.5" y="-249.8" font-family="Times,serif" font-size="14.00"> </text>
<polygon fill="none" stroke="black" points="32.5,-243 32.5,-264 134.5,-264 134.5,-243 32.5,-243"/>
<text text-anchor="start" x="38" y="-249.8" font-family="Times,serif" font-size="14.00">capability_id</text>
</g>
<!-- parameters&#45;&gt;arguments -->
<g id="edge2" class="edge">
<title>parameters:e&#45;&gt;arguments:w</title>
<path fill="none" stroke="black" d="M135.5,-274C155.01,-274 162.28,-274 177.77,-274"/>
<polygon fill="black" stroke="black" points="178,-277.5 188,-274 178,-270.5 178,-277.5"/>
</g>
<!-- parameters&#45;&gt;capabilities -->
<g id="edge1" class="edge">
<title>parameters:e&#45;&gt;capabilities:w</title>
<path fill="none" stroke="black" d="M135.5,-253C194.81,-253 133.3,-136.5 177.98,-122.39"/>
<polygon fill="black" stroke="black" points="178.58,-125.84 188,-121 177.61,-118.91 178.58,-125.84"/>
</g>
<!-- paramlims -->
<g id="node9" class="node">
<title>paramlims</title>
<polygon fill="none" stroke="black" points="8.5,-716 8.5,-737 135.5,-737 135.5,-716 8.5,-716"/>
<text text-anchor="start" x="29.5" y="-723.8" font-family="Times,serif" font-weight="bold" font-size="14.00">paramlims</text>
<polygon fill="none" stroke="black" points="8.5,-695 8.5,-716 32.5,-716 32.5,-695 8.5,-695"/>
<text text-anchor="start" x="11.5" y="-701.8" font-family="Times,serif" font-size="14.00">🔑</text>
<polygon fill="none" stroke="black" points="32.5,-695 32.5,-716 135.5,-716 135.5,-695 32.5,-695"/>
<text text-anchor="start" x="39.5" y="-701.8" font-family="Times,serif" font-size="14.00">paramlim_id</text>
<polygon fill="none" stroke="black" points="8.5,-674 8.5,-695 32.5,-695 32.5,-674 8.5,-674"/>
<text text-anchor="start" x="15.5" y="-680.8" font-family="Times,serif" font-size="14.00"> </text>
<polygon fill="none" stroke="black" points="32.5,-674 32.5,-695 135.5,-695 135.5,-674 32.5,-674"/>
<text text-anchor="start" x="62" y="-680.8" font-family="Times,serif" font-size="14.00">model</text>
<polygon fill="none" stroke="black" points="8.5,-653 8.5,-674 32.5,-674 32.5,-653 8.5,-653"/>
<text text-anchor="start" x="15.5" y="-659.8" font-family="Times,serif" font-size="14.00"> </text>
<polygon fill="none" stroke="black" points="32.5,-653 32.5,-674 135.5,-674 135.5,-653 32.5,-653"/>
<text text-anchor="start" x="45.5" y="-659.8" font-family="Times,serif" font-size="14.00">timestamp</text>
<polygon fill="none" stroke="black" points="8.5,-632 8.5,-653 32.5,-653 32.5,-632 8.5,-632"/>
<text text-anchor="start" x="15.5" y="-638.8" font-family="Times,serif" font-size="14.00"> </text>
<polygon fill="none" stroke="black" points="32.5,-632 32.5,-653 135.5,-653 135.5,-632 32.5,-632"/>
<text text-anchor="start" x="37" y="-638.8" font-family="Times,serif" font-size="14.00">extreme_min</text>
<polygon fill="none" stroke="black" points="8.5,-611 8.5,-632 32.5,-632 32.5,-611 8.5,-611"/>
<text text-anchor="start" x="15.5" y="-617.8" font-family="Times,serif" font-size="14.00"> </text>
<polygon fill="none" stroke="black" points="32.5,-611 32.5,-632 135.5,-632 135.5,-611 32.5,-611"/>
<text text-anchor="start" x="35.5" y="-617.8" font-family="Times,serif" font-size="14.00">extreme_max</text>
<polygon fill="none" stroke="black" points="8.5,-590 8.5,-611 32.5,-611 32.5,-590 8.5,-590"/>
<text text-anchor="start" x="15.5" y="-596.8" font-family="Times,serif" font-size="14.00"> </text>
<polygon fill="none" stroke="black" points="32.5,-590 32.5,-611 135.5,-611 135.5,-590 32.5,-590"/>
<text text-anchor="start" x="40" y="-596.8" font-family="Times,serif" font-size="14.00">created_min</text>
<polygon fill="none" stroke="black" points="8.5,-569 8.5,-590 32.5,-590 32.5,-569 8.5,-569"/>
<text text-anchor="start" x="15.5" y="-575.8" font-family="Times,serif" font-size="14.00"> </text>
<polygon fill="none" stroke="black" points="32.5,-569 32.5,-590 135.5,-590 135.5,-569 32.5,-569"/>
<text text-anchor="start" x="38.5" y="-575.8" font-family="Times,serif" font-size="14.00">created_max</text>
</g>
<!-- templates -->
<g id="node11" class="node">
<title>templates</title>
<polygon fill="none" stroke="black" points="11.5,-196 11.5,-217 132.5,-217 132.5,-196 11.5,-196"/>
<text text-anchor="start" x="32.5" y="-203.8" font-family="Times,serif" font-weight="bold" font-size="14.00">templates</text>
<polygon fill="none" stroke="black" points="11.5,-175 11.5,-196 35.5,-196 35.5,-175 11.5,-175"/>
<text text-anchor="start" x="14.5" y="-181.8" font-family="Times,serif" font-size="14.00">🔑</text>
<polygon fill="none" stroke="black" points="35.5,-175 35.5,-196 132.5,-196 132.5,-175 35.5,-175"/>
<text text-anchor="start" x="41.5" y="-181.8" font-family="Times,serif" font-size="14.00">template_id</text>
<polygon fill="none" stroke="black" points="11.5,-154 11.5,-175 35.5,-175 35.5,-154 11.5,-154"/>
<text text-anchor="start" x="18.5" y="-160.8" font-family="Times,serif" font-size="14.00"> </text>
<polygon fill="none" stroke="black" points="35.5,-154 35.5,-175 132.5,-175 132.5,-154 35.5,-154"/>
<text text-anchor="start" x="45.5" y="-160.8" font-family="Times,serif" font-size="14.00">timestamp</text>
<polygon fill="none" stroke="black" points="11.5,-133 11.5,-154 35.5,-154 35.5,-133 11.5,-133"/>
<text text-anchor="start" x="18.5" y="-139.8" font-family="Times,serif" font-size="14.00"> </text>
<polygon fill="none" stroke="black" points="35.5,-133 35.5,-154 132.5,-154 132.5,-133 35.5,-133"/>
<text text-anchor="start" x="43.5" y="-139.8" font-family="Times,serif" font-size="14.00">description</text>
<polygon fill="none" stroke="black" points="11.5,-112 11.5,-133 35.5,-133 35.5,-112 11.5,-112"/>
<text text-anchor="start" x="18.5" y="-118.8" font-family="Times,serif" font-size="14.00"> </text>
<polygon fill="none" stroke="black" points="35.5,-112 35.5,-133 132.5,-133 132.5,-112 35.5,-112"/>
<text text-anchor="start" x="69.5" y="-118.8" font-family="Times,serif" font-size="14.00">text</text>
<polygon fill="none" stroke="black" points="11.5,-91 11.5,-112 35.5,-112 35.5,-91 11.5,-91"/>
<text text-anchor="start" x="18.5" y="-97.8" font-family="Times,serif" font-size="14.00"> </text>
<polygon fill="none" stroke="black" points="35.5,-91 35.5,-112 132.5,-112 132.5,-91 35.5,-91"/>
<text text-anchor="start" x="38.5" y="-97.8" font-family="Times,serif" font-size="14.00">capability_id</text>
</g>
<!-- templates&#45;&gt;capabilities -->
<g id="edge3" class="edge">
<title>templates:e&#45;&gt;capabilities:w</title>
<path fill="none" stroke="black" d="M133.5,-101C155.47,-101 160.83,-115.5 177.87,-119.81"/>
<polygon fill="black" stroke="black" points="177.66,-123.31 188,-121 178.48,-116.36 177.66,-123.31"/>
</g>
<!-- tests -->
<g id="node12" class="node">
<title>tests</title>
<polygon fill="none" stroke="black" points="9.5,-521 9.5,-542 134.5,-542 134.5,-521 9.5,-521"/>
<text text-anchor="start" x="52" y="-528.8" font-family="Times,serif" font-weight="bold" font-size="14.00">tests</text>
<polygon fill="none" stroke="black" points="9.5,-500 9.5,-521 33.5,-521 33.5,-500 9.5,-500"/>
<text text-anchor="start" x="12.5" y="-506.8" font-family="Times,serif" font-size="14.00">🔑</text>
<polygon fill="none" stroke="black" points="33.5,-500 33.5,-521 134.5,-521 134.5,-500 33.5,-500"/>
<text text-anchor="start" x="59.5" y="-506.8" font-family="Times,serif" font-size="14.00">test_id</text>
<polygon fill="none" stroke="black" points="9.5,-479 9.5,-500 33.5,-500 33.5,-479 9.5,-479"/>
<text text-anchor="start" x="16.5" y="-485.8" font-family="Times,serif" font-size="14.00"> </text>
<polygon fill="none" stroke="black" points="33.5,-479 33.5,-500 134.5,-500 134.5,-479 33.5,-479"/>
<text text-anchor="start" x="45.5" y="-485.8" font-family="Times,serif" font-size="14.00">timestamp</text>
<polygon fill="none" stroke="black" points="9.5,-458 9.5,-479 33.5,-479 33.5,-458 9.5,-458"/>
<text text-anchor="start" x="16.5" y="-464.8" font-family="Times,serif" font-size="14.00"> </text>
<polygon fill="none" stroke="black" points="33.5,-458 33.5,-479 134.5,-479 134.5,-458 33.5,-458"/>
<text text-anchor="start" x="42" y="-464.8" font-family="Times,serif" font-size="14.00">left_exec_id</text>
<polygon fill="none" stroke="black" points="9.5,-437 9.5,-458 33.5,-458 33.5,-437 9.5,-437"/>
<text text-anchor="start" x="16.5" y="-443.8" font-family="Times,serif" font-size="14.00"> </text>
<polygon fill="none" stroke="black" points="33.5,-437 33.5,-458 134.5,-458 134.5,-437 33.5,-437"/>
<text text-anchor="start" x="36.5" y="-443.8" font-family="Times,serif" font-size="14.00">right_exec_id</text>
<polygon fill="none" stroke="black" points="9.5,-416 9.5,-437 33.5,-437 33.5,-416 9.5,-416"/>
<text text-anchor="start" x="16.5" y="-422.8" font-family="Times,serif" font-size="14.00"> </text>
<polygon fill="none" stroke="black" points="33.5,-416 33.5,-437 134.5,-437 134.5,-416 33.5,-416"/>
<text text-anchor="start" x="50.5" y="-422.8" font-family="Times,serif" font-size="14.00">tolerance</text>
<polygon fill="none" stroke="black" points="9.5,-395 9.5,-416 33.5,-416 33.5,-395 9.5,-395"/>
<text text-anchor="start" x="16.5" y="-401.8" font-family="Times,serif" font-size="14.00"> </text>
<polygon fill="none" stroke="black" points="33.5,-395 33.5,-416 134.5,-416 134.5,-395 33.5,-395"/>
<text text-anchor="start" x="64.5" y="-401.8" font-family="Times,serif" font-size="14.00">value</text>
</g>
<!-- tests&#45;&gt;execs -->
<g id="edge10" class="edge">
<title>tests:e&#45;&gt;execs:w</title>
<path fill="none" stroke="black" d="M135.5,-447C156.01,-447 160.56,-461.95 176.08,-466.62"/>
<polygon fill="black" stroke="black" points="175.61,-470.09 186,-468 176.58,-463.16 175.61,-470.09"/>
</g>
<!-- tests&#45;&gt;execs -->
<g id="edge11" class="edge">
<title>tests:e&#45;&gt;execs:w</title>
<path fill="none" stroke="black" d="M135.5,-468C154.09,-468 161.13,-468 175.75,-468"/>
<polygon fill="black" stroke="black" points="176,-471.5 186,-468 176,-464.5 176,-471.5"/>
</g>
</g>
</svg>
