<?xml version="1.0" encoding="UTF-8" standalone="no"?>
<!DOCTYPE svg PUBLIC "-//W3C//DTD SVG 1.1//EN"
 "http://www.w3.org/Graphics/SVG/1.1/DTD/svg11.dtd">
<!-- Generated by graphviz version 2.43.0 (0)
 -->
<!-- Title: structs Pages: 1 -->
<svg width="649pt" height="562pt"
 viewBox="0.00 0.00 649.00 561.50" xmlns="http://www.w3.org/2000/svg" xmlns:xlink="http://www.w3.org/1999/xlink">
<g id="graph0" class="graph" transform="scale(1 1) rotate(0) translate(4 557.5)">
<title>structs</title>
<polygon fill="white" stroke="transparent" points="-4,4 -4,-557.5 645,-557.5 645,4 -4,4"/>
<!-- codes -->
<g id="node1" class="node">
<title>codes</title>
<polygon fill="none" stroke="black" points="363.5,-238.5 363.5,-259.5 470.5,-259.5 470.5,-238.5 363.5,-238.5"/>
<text text-anchor="start" x="394.5" y="-246.3" font-family="Times,serif" font-weight="bold" font-size="14.00">codes</text>
<polygon fill="none" stroke="black" points="363.5,-217.5 363.5,-238.5 387.5,-238.5 387.5,-217.5 363.5,-217.5"/>
<text text-anchor="start" x="366.5" y="-224.3" font-family="Times,serif" font-size="14.00">🔑</text>
<polygon fill="none" stroke="black" points="387.5,-217.5 387.5,-238.5 470.5,-238.5 470.5,-217.5 387.5,-217.5"/>
<text text-anchor="start" x="402" y="-224.3" font-family="Times,serif" font-size="14.00">code_id</text>
<polygon fill="none" stroke="black" points="363.5,-196.5 363.5,-217.5 387.5,-217.5 387.5,-196.5 363.5,-196.5"/>
<text text-anchor="start" x="370.5" y="-203.3" font-family="Times,serif" font-size="14.00"> </text>
<polygon fill="none" stroke="black" points="387.5,-196.5 387.5,-217.5 470.5,-217.5 470.5,-196.5 387.5,-196.5"/>
<text text-anchor="start" x="390.5" y="-203.3" font-family="Times,serif" font-size="14.00">timestamp</text>
<polygon fill="none" stroke="black" points="363.5,-175.5 363.5,-196.5 387.5,-196.5 387.5,-175.5 363.5,-175.5"/>
<text text-anchor="start" x="370.5" y="-182.3" font-family="Times,serif" font-size="14.00"> </text>
<polygon fill="none" stroke="black" points="387.5,-175.5 387.5,-196.5 470.5,-196.5 470.5,-175.5 387.5,-175.5"/>
<text text-anchor="start" x="396" y="-182.3" font-family="Times,serif" font-size="14.00">language</text>
<polygon fill="none" stroke="black" points="363.5,-154.5 363.5,-175.5 387.5,-175.5 387.5,-154.5 363.5,-154.5"/>
<text text-anchor="start" x="370.5" y="-161.3" font-family="Times,serif" font-size="14.00"> </text>
<polygon fill="none" stroke="black" points="387.5,-154.5 387.5,-175.5 470.5,-175.5 470.5,-154.5 387.5,-154.5"/>
<text text-anchor="start" x="391.5" y="-161.3" font-family="Times,serif" font-size="14.00">datafile_id</text>
<polygon fill="none" stroke="black" points="363.5,-133.5 363.5,-154.5 387.5,-154.5 387.5,-133.5 363.5,-133.5"/>
<text text-anchor="start" x="370.5" y="-140.3" font-family="Times,serif" font-size="14.00"> </text>
<polygon fill="none" stroke="black" points="387.5,-133.5 387.5,-154.5 470.5,-154.5 470.5,-133.5 387.5,-133.5"/>
<text text-anchor="start" x="395.5" y="-140.3" font-family="Times,serif" font-size="14.00">param_id</text>
</g>
<!-- datafiles -->
<g id="node2" class="node">
<title>datafiles</title>
<polygon fill="none" stroke="black" points="522.5,-240.5 522.5,-261.5 633.5,-261.5 633.5,-240.5 522.5,-240.5"/>
<text text-anchor="start" x="543.5" y="-248.3" font-family="Times,serif" font-weight="bold" font-size="14.00">datafiles</text>
<polygon fill="none" stroke="black" points="522.5,-219.5 522.5,-240.5 546.5,-240.5 546.5,-219.5 522.5,-219.5"/>
<text text-anchor="start" x="525.5" y="-226.3" font-family="Times,serif" font-size="14.00">🔑</text>
<polygon fill="none" stroke="black" points="546.5,-219.5 546.5,-240.5 633.5,-240.5 633.5,-219.5 546.5,-219.5"/>
<text text-anchor="start" x="552.5" y="-226.3" font-family="Times,serif" font-size="14.00">datafile_id</text>
<polygon fill="none" stroke="black" points="522.5,-198.5 522.5,-219.5 546.5,-219.5 546.5,-198.5 522.5,-198.5"/>
<text text-anchor="start" x="529.5" y="-205.3" font-family="Times,serif" font-size="14.00"> </text>
<polygon fill="none" stroke="black" points="546.5,-198.5 546.5,-219.5 633.5,-219.5 633.5,-198.5 546.5,-198.5"/>
<text text-anchor="start" x="551.5" y="-205.3" font-family="Times,serif" font-size="14.00">timestamp</text>
<polygon fill="none" stroke="black" points="522.5,-177.5 522.5,-198.5 546.5,-198.5 546.5,-177.5 522.5,-177.5"/>
<text text-anchor="start" x="529.5" y="-184.3" font-family="Times,serif" font-size="14.00"> </text>
<polygon fill="none" stroke="black" points="546.5,-177.5 546.5,-198.5 633.5,-198.5 633.5,-177.5 546.5,-177.5"/>
<text text-anchor="start" x="559" y="-184.3" font-family="Times,serif" font-size="14.00">filename</text>
<polygon fill="none" stroke="black" points="522.5,-156.5 522.5,-177.5 546.5,-177.5 546.5,-156.5 522.5,-156.5"/>
<text text-anchor="start" x="529.5" y="-163.3" font-family="Times,serif" font-size="14.00"> </text>
<polygon fill="none" stroke="black" points="546.5,-156.5 546.5,-177.5 633.5,-177.5 633.5,-156.5 546.5,-156.5"/>
<text text-anchor="start" x="555" y="-163.3" font-family="Times,serif" font-size="14.00">total_recs</text>
<polygon fill="none" stroke="black" points="522.5,-135.5 522.5,-156.5 546.5,-156.5 546.5,-135.5 522.5,-135.5"/>
<text text-anchor="start" x="529.5" y="-142.3" font-family="Times,serif" font-size="14.00"> </text>
<polygon fill="none" stroke="black" points="546.5,-135.5 546.5,-156.5 633.5,-156.5 633.5,-135.5 546.5,-135.5"/>
<text text-anchor="start" x="549.5" y="-142.3" font-family="Times,serif" font-size="14.00">description</text>
</g>
<!-- codes&#45;&gt;datafiles -->
<g id="edge5" class="edge">
<title>codes:e&#45;&gt;datafiles:w</title>
<path fill="none" stroke="black" d="M471.5,-164.5C504.28,-164.5 489.14,-216.85 511.43,-228.3"/>
<polygon fill="black" stroke="black" points="510.98,-231.79 521.5,-230.5 512.48,-224.95 510.98,-231.79"/>
</g>
<!-- params -->
<g id="node5" class="node">
<title>params</title>
<polygon fill="none" stroke="black" points="524.5,-87.5 524.5,-108.5 631.5,-108.5 631.5,-87.5 524.5,-87.5"/>
<text text-anchor="start" x="548.5" y="-95.3" font-family="Times,serif" font-weight="bold" font-size="14.00">params</text>
<polygon fill="none" stroke="black" points="524.5,-66.5 524.5,-87.5 548.5,-87.5 548.5,-66.5 524.5,-66.5"/>
<text text-anchor="start" x="527.5" y="-73.3" font-family="Times,serif" font-size="14.00">🔑</text>
<polygon fill="none" stroke="black" points="548.5,-66.5 548.5,-87.5 631.5,-87.5 631.5,-66.5 548.5,-66.5"/>
<text text-anchor="start" x="556.5" y="-73.3" font-family="Times,serif" font-size="14.00">param_id</text>
<polygon fill="none" stroke="black" points="524.5,-45.5 524.5,-66.5 548.5,-66.5 548.5,-45.5 524.5,-45.5"/>
<text text-anchor="start" x="531.5" y="-52.3" font-family="Times,serif" font-size="14.00"> </text>
<polygon fill="none" stroke="black" points="548.5,-45.5 548.5,-66.5 631.5,-66.5 631.5,-45.5 548.5,-45.5"/>
<text text-anchor="start" x="568" y="-52.3" font-family="Times,serif" font-size="14.00">model</text>
<polygon fill="none" stroke="black" points="524.5,-24.5 524.5,-45.5 548.5,-45.5 548.5,-24.5 524.5,-24.5"/>
<text text-anchor="start" x="531.5" y="-31.3" font-family="Times,serif" font-size="14.00"> </text>
<polygon fill="none" stroke="black" points="548.5,-24.5 548.5,-45.5 631.5,-45.5 631.5,-24.5 548.5,-24.5"/>
<text text-anchor="start" x="551.5" y="-31.3" font-family="Times,serif" font-size="14.00">timestamp</text>
<polygon fill="none" stroke="black" points="524.5,-3.5 524.5,-24.5 548.5,-24.5 548.5,-3.5 524.5,-3.5"/>
<text text-anchor="start" x="531.5" y="-10.3" font-family="Times,serif" font-size="14.00"> </text>
<polygon fill="none" stroke="black" points="548.5,-3.5 548.5,-24.5 631.5,-24.5 631.5,-3.5 548.5,-3.5"/>
<text text-anchor="start" x="570.5" y="-10.3" font-family="Times,serif" font-size="14.00">value</text>
</g>
<!-- codes&#45;&gt;params -->
<g id="edge4" class="edge">
<title>codes:e&#45;&gt;params:w</title>
<path fill="none" stroke="black" d="M471.5,-143.5C504.91,-143.5 490.27,-90.69 513.55,-79.55"/>
<polygon fill="black" stroke="black" points="514.41,-82.94 523.5,-77.5 513,-76.09 514.41,-82.94"/>
</g>
<!-- execs -->
<g id="node3" class="node">
<title>execs</title>
<polygon fill="none" stroke="black" points="187,-280.5 187,-301.5 311,-301.5 311,-280.5 187,-280.5"/>
<text text-anchor="start" x="227.5" y="-288.3" font-family="Times,serif" font-weight="bold" font-size="14.00">execs</text>
<polygon fill="none" stroke="black" points="187,-259.5 187,-280.5 211,-280.5 211,-259.5 187,-259.5"/>
<text text-anchor="start" x="190" y="-266.3" font-family="Times,serif" font-size="14.00">🔑</text>
<polygon fill="none" stroke="black" points="211,-259.5 211,-280.5 311,-280.5 311,-259.5 211,-259.5"/>
<text text-anchor="start" x="234.5" y="-266.3" font-family="Times,serif" font-size="14.00">exec_id</text>
<polygon fill="none" stroke="black" points="187,-238.5 187,-259.5 211,-259.5 211,-238.5 187,-238.5"/>
<text text-anchor="start" x="194" y="-245.3" font-family="Times,serif" font-size="14.00"> </text>
<polygon fill="none" stroke="black" points="211,-238.5 211,-259.5 311,-259.5 311,-238.5 211,-238.5"/>
<text text-anchor="start" x="222.5" y="-245.3" font-family="Times,serif" font-size="14.00">timestamp</text>
<polygon fill="none" stroke="black" points="187,-217.5 187,-238.5 211,-238.5 211,-217.5 187,-217.5"/>
<text text-anchor="start" x="194" y="-224.3" font-family="Times,serif" font-size="14.00"> </text>
<polygon fill="none" stroke="black" points="211,-217.5 211,-238.5 311,-238.5 311,-217.5 211,-217.5"/>
<text text-anchor="start" x="234" y="-224.3" font-family="Times,serif" font-size="14.00">code_id</text>
<polygon fill="none" stroke="black" points="187,-196.5 187,-217.5 211,-217.5 211,-196.5 187,-196.5"/>
<text text-anchor="start" x="194" y="-203.3" font-family="Times,serif" font-size="14.00"> </text>
<polygon fill="none" stroke="black" points="211,-196.5 211,-217.5 311,-217.5 311,-196.5 211,-196.5"/>
<text text-anchor="start" x="229.5" y="-203.3" font-family="Times,serif" font-size="14.00">sys_desc</text>
<polygon fill="none" stroke="black" points="187,-175.5 187,-196.5 211,-196.5 211,-175.5 187,-175.5"/>
<text text-anchor="start" x="194" y="-182.3" font-family="Times,serif" font-size="14.00"> </text>
<polygon fill="none" stroke="black" points="211,-175.5 211,-196.5 311,-196.5 311,-175.5 211,-175.5"/>
<text text-anchor="start" x="214" y="-182.3" font-family="Times,serif" font-size="14.00">elapsed_time</text>
<polygon fill="none" stroke="black" points="187,-154.5 187,-175.5 211,-175.5 211,-154.5 187,-154.5"/>
<text text-anchor="start" x="194" y="-161.3" font-family="Times,serif" font-size="14.00"> </text>
<polygon fill="none" stroke="black" points="211,-154.5 211,-175.5 311,-175.5 311,-154.5 211,-154.5"/>
<text text-anchor="start" x="214" y="-161.3" font-family="Times,serif" font-size="14.00">process_time</text>
<polygon fill="none" stroke="black" points="187,-133.5 187,-154.5 211,-154.5 211,-133.5 187,-133.5"/>
<text text-anchor="start" x="194" y="-140.3" font-family="Times,serif" font-size="14.00"> </text>
<polygon fill="none" stroke="black" points="211,-133.5 211,-154.5 311,-154.5 311,-133.5 211,-133.5"/>
<text text-anchor="start" x="241.5" y="-140.3" font-family="Times,serif" font-size="14.00">value</text>
</g>
<!-- execs&#45;&gt;codes -->
<g id="edge3" class="edge">
<title>execs:e&#45;&gt;codes:w</title>
<path fill="none" stroke="black" d="M312,-228.5C330.59,-228.5 337.63,-228.5 352.25,-228.5"/>
<polygon fill="black" stroke="black" points="352.5,-232 362.5,-228.5 352.5,-225 352.5,-232"/>
</g>
<!-- paramlims -->
<g id="node4" class="node">
<title>paramlims</title>
<polygon fill="none" stroke="black" points="8.5,-528.5 8.5,-549.5 135.5,-549.5 135.5,-528.5 8.5,-528.5"/>
<text text-anchor="start" x="29.5" y="-536.3" font-family="Times,serif" font-weight="bold" font-size="14.00">paramlims</text>
<polygon fill="none" stroke="black" points="8.5,-507.5 8.5,-528.5 32.5,-528.5 32.5,-507.5 8.5,-507.5"/>
<text text-anchor="start" x="11.5" y="-514.3" font-family="Times,serif" font-size="14.00">🔑</text>
<polygon fill="none" stroke="black" points="32.5,-507.5 32.5,-528.5 135.5,-528.5 135.5,-507.5 32.5,-507.5"/>
<text text-anchor="start" x="39.5" y="-514.3" font-family="Times,serif" font-size="14.00">paramlim_id</text>
<polygon fill="none" stroke="black" points="8.5,-486.5 8.5,-507.5 32.5,-507.5 32.5,-486.5 8.5,-486.5"/>
<text text-anchor="start" x="15.5" y="-493.3" font-family="Times,serif" font-size="14.00"> </text>
<polygon fill="none" stroke="black" points="32.5,-486.5 32.5,-507.5 135.5,-507.5 135.5,-486.5 32.5,-486.5"/>
<text text-anchor="start" x="62" y="-493.3" font-family="Times,serif" font-size="14.00">model</text>
<polygon fill="none" stroke="black" points="8.5,-465.5 8.5,-486.5 32.5,-486.5 32.5,-465.5 8.5,-465.5"/>
<text text-anchor="start" x="15.5" y="-472.3" font-family="Times,serif" font-size="14.00"> </text>
<polygon fill="none" stroke="black" points="32.5,-465.5 32.5,-486.5 135.5,-486.5 135.5,-465.5 32.5,-465.5"/>
<text text-anchor="start" x="45.5" y="-472.3" font-family="Times,serif" font-size="14.00">timestamp</text>
<polygon fill="none" stroke="black" points="8.5,-444.5 8.5,-465.5 32.5,-465.5 32.5,-444.5 8.5,-444.5"/>
<text text-anchor="start" x="15.5" y="-451.3" font-family="Times,serif" font-size="14.00"> </text>
<polygon fill="none" stroke="black" points="32.5,-444.5 32.5,-465.5 135.5,-465.5 135.5,-444.5 32.5,-444.5"/>
<text text-anchor="start" x="37" y="-451.3" font-family="Times,serif" font-size="14.00">extreme_min</text>
<polygon fill="none" stroke="black" points="8.5,-423.5 8.5,-444.5 32.5,-444.5 32.5,-423.5 8.5,-423.5"/>
<text text-anchor="start" x="15.5" y="-430.3" font-family="Times,serif" font-size="14.00"> </text>
<polygon fill="none" stroke="black" points="32.5,-423.5 32.5,-444.5 135.5,-444.5 135.5,-423.5 32.5,-423.5"/>
<text text-anchor="start" x="35.5" y="-430.3" font-family="Times,serif" font-size="14.00">extreme_max</text>
<polygon fill="none" stroke="black" points="8.5,-402.5 8.5,-423.5 32.5,-423.5 32.5,-402.5 8.5,-402.5"/>
<text text-anchor="start" x="15.5" y="-409.3" font-family="Times,serif" font-size="14.00"> </text>
<polygon fill="none" stroke="black" points="32.5,-402.5 32.5,-423.5 135.5,-423.5 135.5,-402.5 32.5,-402.5"/>
<text text-anchor="start" x="40" y="-409.3" font-family="Times,serif" font-size="14.00">created_min</text>
<polygon fill="none" stroke="black" points="8.5,-381.5 8.5,-402.5 32.5,-402.5 32.5,-381.5 8.5,-381.5"/>
<text text-anchor="start" x="15.5" y="-388.3" font-family="Times,serif" font-size="14.00"> </text>
<polygon fill="none" stroke="black" points="32.5,-381.5 32.5,-402.5 135.5,-402.5 135.5,-381.5 32.5,-381.5"/>
<text text-anchor="start" x="38.5" y="-388.3" font-family="Times,serif" font-size="14.00">created_max</text>
</g>
<!-- tests -->
<g id="node6" class="node">
<title>tests</title>
<polygon fill="none" stroke="black" points="9.5,-333.5 9.5,-354.5 134.5,-354.5 134.5,-333.5 9.5,-333.5"/>
<text text-anchor="start" x="52" y="-341.3" font-family="Times,serif" font-weight="bold" font-size="14.00">tests</text>
<polygon fill="none" stroke="black" points="9.5,-312.5 9.5,-333.5 33.5,-333.5 33.5,-312.5 9.5,-312.5"/>
<text text-anchor="start" x="12.5" y="-319.3" font-family="Times,serif" font-size="14.00">🔑</text>
<polygon fill="none" stroke="black" points="33.5,-312.5 33.5,-333.5 134.5,-333.5 134.5,-312.5 33.5,-312.5"/>
<text text-anchor="start" x="59.5" y="-319.3" font-family="Times,serif" font-size="14.00">test_id</text>
<polygon fill="none" stroke="black" points="9.5,-291.5 9.5,-312.5 33.5,-312.5 33.5,-291.5 9.5,-291.5"/>
<text text-anchor="start" x="16.5" y="-298.3" font-family="Times,serif" font-size="14.00"> </text>
<polygon fill="none" stroke="black" points="33.5,-291.5 33.5,-312.5 134.5,-312.5 134.5,-291.5 33.5,-291.5"/>
<text text-anchor="start" x="45.5" y="-298.3" font-family="Times,serif" font-size="14.00">timestamp</text>
<polygon fill="none" stroke="black" points="9.5,-270.5 9.5,-291.5 33.5,-291.5 33.5,-270.5 9.5,-270.5"/>
<text text-anchor="start" x="16.5" y="-277.3" font-family="Times,serif" font-size="14.00"> </text>
<polygon fill="none" stroke="black" points="33.5,-270.5 33.5,-291.5 134.5,-291.5 134.5,-270.5 33.5,-270.5"/>
<text text-anchor="start" x="42" y="-277.3" font-family="Times,serif" font-size="14.00">left_exec_id</text>
<polygon fill="none" stroke="black" points="9.5,-249.5 9.5,-270.5 33.5,-270.5 33.5,-249.5 9.5,-249.5"/>
<text text-anchor="start" x="16.5" y="-256.3" font-family="Times,serif" font-size="14.00"> </text>
<polygon fill="none" stroke="black" points="33.5,-249.5 33.5,-270.5 134.5,-270.5 134.5,-249.5 33.5,-249.5"/>
<text text-anchor="start" x="36.5" y="-256.3" font-family="Times,serif" font-size="14.00">right_exec_id</text>
<polygon fill="none" stroke="black" points="9.5,-228.5 9.5,-249.5 33.5,-249.5 33.5,-228.5 9.5,-228.5"/>
<text text-anchor="start" x="16.5" y="-235.3" font-family="Times,serif" font-size="14.00"> </text>
<polygon fill="none" stroke="black" points="33.5,-228.5 33.5,-249.5 134.5,-249.5 134.5,-228.5 33.5,-228.5"/>
<text text-anchor="start" x="50.5" y="-235.3" font-family="Times,serif" font-size="14.00">tolerance</text>
<polygon fill="none" stroke="black" points="9.5,-207.5 9.5,-228.5 33.5,-228.5 33.5,-207.5 9.5,-207.5"/>
<text text-anchor="start" x="16.5" y="-214.3" font-family="Times,serif" font-size="14.00"> </text>
<polygon fill="none" stroke="black" points="33.5,-207.5 33.5,-228.5 134.5,-228.5 134.5,-207.5 33.5,-207.5"/>
<text text-anchor="start" x="64.5" y="-214.3" font-family="Times,serif" font-size="14.00">value</text>
</g>
<!-- tests&#45;&gt;execs -->
<g id="edge1" class="edge">
<title>tests:e&#45;&gt;execs:w</title>
<path fill="none" stroke="black" d="M135.5,-259.5C154.7,-259.5 161.04,-267.19 176.02,-269.71"/>
<polygon fill="black" stroke="black" points="175.75,-273.2 186,-270.5 176.31,-266.22 175.75,-273.2"/>
</g>
<!-- tests&#45;&gt;execs -->
<g id="edge2" class="edge">
<title>tests:e&#45;&gt;execs:w</title>
<path fill="none" stroke="black" d="M135.5,-280.5C154.45,-280.5 160.95,-273.64 175.63,-271.28"/>
<polygon fill="black" stroke="black" points="176.29,-274.74 186,-270.5 175.76,-267.76 176.29,-274.74"/>
</g>
</g>
</svg>
